P3
75 42
255
116 152 0
117 152 0
121 154 0
118 153 0
119 153 0
117 152 0
120 153 0
116 150 0
118 153 0
117 152 0
117 151 0
120 153 0
119 153 0
117 150 0
119 153 0
117 150 0
118 152 0
119 152 0
117 151 0
119 153 0
119 153 0
116 150 0
115 150 0
116 150 0
119 152 0
120 153 0
118 151 0
117 152 0
120 153 0
121 154 0
117 150 0
118 152 0
117 151 0
118 152 0
117 151 0
115 149 0
119 151 0
118 151 0
117 150 0
120 154 0
116 150 0
116 151 0
118 153 0
117 151 0
115 148 0
116 126 9
149 128 50
139 124 51
130 120 51
123 116 51
118 114 51
113 112 51
109 110 51
106 109 51
104 108 51
104 108 51
103 108 51
104 108 51
106 109 51
109 110 51
112 112 51
117 114 51
123 116 51
130 120 51
139 124 51
143 125 44
117 144 0
119 152 0
118 151 0
118 152 0
119 153 0
117 151 0
117 151 0
118 152 0
116 150 0
119 153 0
119 153 0
117 151 0
118 152 0
120 153 0
117 152 0
116 150 0
121 154 0
118 152 0
120 154 0
119 152 0
120 154 0
118 153 0
119 152 0
119 152 0
116 150 0
116 150 0
116 149 0
117 152 0
113 146 0
119 153 0
115 147 0
116 151 0
117 150 0
117 150 0
116 150 0
121 154 0
116 150 0
115 149 0
117 151 0
116 149 0
117 151 0
117 151 0
114 147 0
118 152 0
115 149 0
114 149 0
120 153 0
116 149 0
116 149 0
114 147 0
118 151 0
119 153 0
120 153 0
110 135 0
142 122 39
144 126 51
134 121 51
127 118 51
120 115 51
115 113 51
111 111 51
107 110 51
105 108 51
103 108 51
102 107 51
102 107 51
103 107 51
104 108 51
107 109 51
110 111 51
114 113 51
120 115 51
126 118 51
135 122 51
145 126 51
131 122 27
117 149 0
118 152 0
118 152 0
119 153 0
120 154 0
120 153 0
120 153 0
118 152 0
117 152 0
119 152 0
117 151 0
118 152 0
121 154 0
119 152 0
120 153 0
117 152 0
118 152 0
114 149 0
119 152 0
119 153 0
120 154 0
116 150 0
118 150 0
118 151 0
117 150 0
116 151 0
116 150 0
117 152 0
118 153 0
118 152 0
116 149 0
118 151 0
116 151 0
119 153 0
117 151 0
117 151 0
118 152 0
117 149 0
120 153 0
117 151 0
116 151 0
117 151 0
119 152 0
119 153 0
117 152 0
117 151 0
117 149 0
118 151 0
117 149 0
117 152 0
116 150 0
117 150 0
116 112 13
150 129 51
140 124 51
132 121 51
125 117 51
119 115 51
114 113 51
110 111 51
107 109 51
105 108 51
103 108 51
102 107 51
102 107 51
103 107 51
104 108 51
106 109 51
109 110 51
113 112 51
118 114 51
124 117 51
132 120 51
140 124 51
149 127 47
114 135 1
119 151 0
121 153 0
119 153 0
119 153 0
121 154 0
117 152 0
117 152 0
118 153 0
118 153 0
115 148 0
118 151 0
121 154 0
119 152 0
120 153 0
119 153 0
117 150 0
117 150 0
119 153 0
120 153 0
119 153 0
118 152 0
118 151 0
116 150 0
114 147 0
116 151 0
115 147 0
118 152 0
119 153 0
118 150 0
118 152 0
116 149 0
118 151 0
119 153 0
115 149 0
117 151 0
116 150 0
118 150 0
115 150 0
118 151 0
118 150 0
119 152 0
116 150 0
118 151 0
114 146 0
115 149 0
117 149 0
118 151 0
119 152 0
117 150 0
119 153 0
111 131 0
128 113 27
148 128 51
139 124 51
131 120 51
125 117 51
120 115 51
115 113 51
111 111 51
108 110 51
106 109 51
104 108 51
103 108 51
103 108 51
104 108 51
105 108 51
107 109 51
110 111 51
114 112 51
118 114 51
123 117 51
130 120 51
138 123 51
148 128 51
121 119 16
118 152 0
118 151 0
118 152 0
120 153 0
118 152 0
117 151 0
119 153 0
119 153 0
117 151 0
118 152 0
119 152 0
115 148 0
119 152 0
117 151 0
120 153 0
116 151 0
118 152 0
117 150 0
116 150 0
118 151 0
117 151 0
118 152 0
116 151 0
119 153 0
115 149 0
118 153 0
117 151 0
118 151 0
117 151 0
116 152 0
118 151 0
119 151 0
116 149 0
117 151 0
113 147 0
118 152 0
115 149 0
119 152 0
118 152 0
118 151 0
114 146 3
88 119 37
82 113 44
82 112 44
71 99 55
85 115 40
91 123 29
118 151 2
116 148 0
118 150 0
101 106 0
147 126 44
146 127 51
139 124 51
132 120 51
126 118 51
121 116 51
116 114 51
113 112 51
110 111 51
108 110 51
106 109 51
106 109 51
105 109 51
106 109 51
107 109 51
109 110 51
111 111 51
115 113 51
119 115 51
124 117 51
130 120 51
137 123 51
146 127 51
134 117 31
115 144 0
117 150 0
117 152 0
120 153 0
119 153 0
119 153 0
119 152 0
118 151 0
117 152 0
118 151 0
118 151 0
115 148 0
118 152 0
118 152 0
118 151 0
116 149 0
116 149 0
119 153 0
117 151 0
118 152 0
120 153 0
114 148 0
115 149 0
115 149 0
116 151 0
118 152 0
119 152 0
119 153 0
114 148 0
119 153 0
114 148 0
117 150 0
117 150 0
115 147 0
115 149 0
119 152 0
116 150 0
112 145 0
90 120 33
49 76 81
21 45 119
15 38 126
15 38 127
14 37 127
15 38 127
15 38 127
14 38 127
18 41 118
44 70 88
90 119 32
93 92 1
145 124 42
147 127 51
140 124 51
134 121 51
128 119 51
123 117 51
119 115 51
115 113 51
113 112 51
111 111 51
109 110 51
108 110 51
108 110 51
109 110 51
110 111 51
112 111 51
114 112 51
117 114 51
121 116 51
126 118 51
131 120 51
138 123 51
146 127 51
136 119 35
110 129 0
118 149 0
118 151 0
119 152 0
117 152 0
117 150 0
118 151 0
120 153 0
118 152 0
118 153 0
117 152 0
118 152 0
119 152 0
120 153 0
120 153 0
116 151 0
120 153 0
117 151 0
117 151 0
119 152 0
115 149 0
119 153 0
116 150 0
118 152 0
119 152 0
118 152 0
119 153 0
116 148 0
113 145 0
117 150 0
117 149 0
118 151 0
116 150 0
116 150 0
116 149 0
118 150 0
81 112 43
36 62 98
15 38 127
15 38 127
14 38 127
15 38 127
14 38 127
15 38 127
14 38 127
14 38 127
14 38 127
14 38 127
15 38 126
15 38 125
29 47 101
110 101 70
148 128 51
142 125 51
136 122 51
131 120 51
126 118 51
122 116 51
119 115 51
116 114 51
114 113 51
113 112 51
112 112 51
112 112 51
112 112 51
113 112 51
115 113 51
117 114 51
120 115 51
124 117 51
128 119 51
134 121 51
139 124 51
147 127 51
147 126 43
102 109 0
119 152 0
117 151 0
118 151 0
121 152 0
117 150 0
119 152 0
116 150 0
118 152 0
116 150 0
116 151 0
116 151 0
119 153 0
112 146 0
118 151 0
118 153 0
118 152 0
120 154 0
116 149 0
115 148 0
120 153 0
116 150 0
118 152 0
114 148 0
117 150 0
120 153 0
119 151 0
117 151 0
117 151 0
116 147 0
114 147 0
114 149 0
116 149 0
116 150 0
111 143 6
56 84 75
14 38 126
15 38 126
15 38 127
14 38 127
14 38 127
15 38 127
15 38 127
14 38 127
14 38 127
14 38 126
14 38 127
15 38 127
15 38 126
15 39 127
14 38 122
15 38 123
74 78 92
143 125 51
139 124 51
119 109 47
115 108 48
126 118 51
123 117 51
121 115 51
119 115 51
117 114 51
116 114 51
116 113 51
116 114 51
117 114 51
119 115 51
121 116 51
124 117 51
127 118 51
131 120 51
137 123 51
142 125 51
149 128 51
144 123 39
99 104 0
116 151 0
114 146 0
119 152 0
116 150 0
120 153 0
118 151 0
119 153 0
119 153 0
117 151 0
118 152 0
118 152 0
116 149 0
118 152 0
116 151 0
120 154 0
117 150 0
116 150 0
119 152 0
120 153 0
118 152 0
114 148 0
117 151 0
116 149 0
115 149 0
118 150 0
114 145 0
116 151 0
114 148 0
116 150 0
117 151 0
114 148 0
113 148 0
104 135 10
36 62 101
14 38 125
15 38 127
14 38 127
14 38 127
14 38 127
14 38 127
15 38 127
14 38 127
14 38 127
15 38 127
14 38 127
15 38 127
14 38 127
15 38 127
14 38 126
14 38 125
15 38 124
15 37 120
39 54 102
34 39 27
11 20 18
11 20 20
26 33 25
109 103 46
125 118 51
124 117 51
122 116 51
121 116 51
121 116 51
122 116 51
122 116 51
124 117 51
126 118 51
128 119 51
131 120 51
135 122 51
140 124 51
145 126 51
152 129 51
134 117 32
95 97 0
118 150 0
119 152 0
119 151 0
116 148 0
117 151 0
118 152 0
113 148 0
119 152 0
119 153 0
119 153 0
117 150 0
118 151 0
117 151 0
117 150 0
115 149 0
119 153 0
118 151 0
114 147 0
116 150 0
114 147 0
116 149 0
116 148 0
120 153 0
117 151 0
112 145 0
115 148 0
115 149 0
117 150 0
117 149 0
116 148 0
116 150 0
109 142 5
34 60 102
15 39 127
15 38 126
15 38 127
15 38 127
14 37 127
15 38 127
14 38 127
15 38 127
15 38 126
14 38 127
15 38 127
14 38 125
14 38 126
15 38 126
14 38 126
15 38 125
15 38 125
15 38 125
15 38 120
15 38 123
14 32 87
10 18 18
10 19 18
11 20 19
12 22 21
95 91 43
129 119 51
127 118 51
127 118 51
126 118 51
127 118 51
128 119 51
129 119 51
131 120 51
133 121 51
136 122 51
140 124 51
144 126 51
149 128 51
155 131 51
106 99 9
95 94 0
118 151 0
115 147 0
118 152 0
117 149 0
117 151 0
117 150 0
117 151 0
118 152 0
116 150 0
116 150 0
115 149 0
117 149 0
118 152 0
117 151 0
116 149 0
113 145 0
117 152 0
119 153 0
116 149 0
118 150 0
117 151 0
115 149 0
116 149 0
116 149 0
118 150 0
115 149 0
114 147 0
117 151 0
115 148 0
115 148 0
115 148 0
53 81 79
15 38 126
14 38 127
15 38 127
14 38 127
15 38 127
14 38 126
15 38 127
15 38 127
15 38 127
15 38 127
15 38 127
14 38 127
15 38 127
15 38 125
14 38 126
14 38 126
15 38 125
15 38 125
15 38 124
15 38 119
15 38 116
15 38 115
12 27 66
9 17 14
9 17 14
10 18 16
26 33 23
124 113 48
133 121 51
133 121 51
132 121 51
133 121 51
133 121 51
135 122 51
136 123 51
138 123 51
141 125 51
145 126 51
149 128 51
153 130 51
135 117 32
95 92 0
97 97 0
117 150 0
118 150 0
119 152 0
116 149 0
116 149 0
120 151 0
115 148 0
114 148 0
117 152 0
116 150 0
116 149 0
116 150 0
115 149 0
111 143 0
117 151 0
115 148 0
114 146 0
115 149 0
118 152 0
112 145 0
117 149 0
113 147 0
114 148 0
115 149 0
113 146 0
114 149 0
115 148 0
117 150 0
109 143 0
110 143 0
74 104 52
15 38 126
14 37 122
14 37 127
15 38 127
15 38 127
14 38 127
15 38 127
15 38 127
15 38 127
14 38 127
15 38 126
15 38 127
15 38 126
15 38 127
15 38 126
15 38 121
15 38 124
15 38 121
15 38 120
15 38 122
15 38 126
15 38 121
14 37 115
15 38 119
10 22 46
9 16 14
10 18 16
11 20 18
72 70 34
140 124 51
139 124 51
139 124 51
139 124 51
139 124 51
141 124 51
142 125 51
144 126 51
146 127 51
150 129 51
153 130 51
146 125 41
98 93 2
94 90 0
101 107 0
118 150 0
119 151 0
117 147 0
117 148 0
116 149 0
118 151 0
113 147 0
114 148 0
116 150 0
115 149 0
116 149 0
118 152 0
117 151 0
115 149 0
119 152 0
117 151 0
116 151 0
113 148 0
114 147 0
116 149 0
112 144 0
115 148 0
115 148 0
116 149 0
113 146 0
112 145 0
116 151 0
113 145 0
111 142 0
113 144 6
24 48 116
15 38 126
14 37 127
14 37 126
14 38 127
14 37 126
14 38 125
15 38 126
15 38 126
15 38 127
15 38 126
15 38 125
15 38 124
14 38 126
15 38 126
15 38 125
15 39 126
15 38 127
15 38 122
14 38 119
15 38 124
15 38 115
15 39 122
15 38 111
15 38 115
14 34 97
9 16 14
10 17 13
10 18 14
20 28 19
144 125 50
146 127 51
145 127 51
145 126 51
146 127 51
146 127 51
148 128 51
150 129 51
153 130 51
155 131 50
125 111 24
98 94 3
96 92 0
94 91 0
99 109 0
116 147 0
118 148 0
117 148 0
117 149 0
121 151 0
117 149 0
115 148 0
118 151 0
115 148 0
115 150 0
117 152 0
118 152 0
114 146 0
121 154 0
115 149 0
117 150 0
116 150 0
116 150 0
112 146 0
112 145 0
116 150 0
112 144 0
115 148 0
109 141 0
111 143 0
111 145 0
116 147 0
115 147 0
111 143 0
60 88 63
14 37 126
14 37 127
15 38 127
14 38 126
15 38 127
15 37 126
14 38 124
15 38 122
14 38 126
15 38 125
15 38 124
15 38 125
14 37 122
15 38 127
14 38 126
15 38 124
15 38 121
15 39 124
15 38 124
15 38 122
15 38 120
15 38 122
15 38 120
15 38 120
15 38 113
15 37 111
11 24 54
8 14 9
10 17 13
11 20 16
137 118 47
152 130 51
152 130 51
152 130 51
153 130 51
153 130 51
155 131 51
151 128 46
126 112 25
108 100 9
96 92 0
94 91 0
93 90 0
93 89 0
109 127 0
115 149 0
114 144 0
120 150 0
115 148 0
118 149 0
118 150 0
117 151 0
118 152 0
116 148 0
117 151 0
117 151 0
114 148 0
116 149 0
116 151 0
114 147 0
115 150 0
117 151 0
117 151 0
114 148 0
117 150 0
114 147 0
112 145 0
115 148 0
109 141 0
115 148 0
118 151 0
111 143 0
111 143 0
110 143 1
25 49 111
14 36 124
14 37 127
14 38 127
14 37 126
14 37 124
14 36 125
15 38 126
14 38 124
15 38 126
14 38 120
15 38 124
15 38 124
15 38 121
15 38 125
15 38 119
15 38 125
15 39 122
14 37 121
15 38 119
15 38 113
15 38 119
15 38 122
15 38 113
15 38 116
15 37 109
15 38 115
13 34 87
8 14 10
9 16 11
11 19 12
102 94 19
121 108 20
125 111 24
126 111 25
123 110 22
114 104 16
108 100 10
95 92 0
96 92 0
95 91 0
93 90 0
93 91 0
92 88 0
93 88 0
114 141 0
114 144 0
115 145 0
115 148 0
115 148 0
115 146 0
118 149 0
116 150 0
116 151 0
119 152 0
116 149 0
115 148 0
117 150 0
117 151 0
115 148 0
110 143 0
111 145 0
114 146 0
113 146 0
116 149 0
112 145 0
114 148 0
117 150 0
117 150 0
113 145 0
114 146 0
112 145 0
109 142 0
115 149 0
83 113 35
14 37 127
15 38 126
14 37 127
15 38 127
14 37 126
15 38 125
14 38 126
14 37 126
15 38 125
15 38 124
14 38 120
15 38 124
15 38 122
14 38 125
15 38 125
14 38 125
14 37 115
15 38 120
15 37 111
15 39 120
14 37 113
15 38 119
15 38 117
15 38 117
15 38 107
15 38 110
15 38 107
16 38 111
10 21 34
8 15 9
9 16 8
88 85 1
94 91 0
95 91 0
93 90 0
95 91 0
94 90 0
94 91 0
92 89 0
92 90 0
92 89 0
93 89 0
93 89 0
92 86 0
97 103 0
119 149 0
113 143 0
116 144 0
116 145 0
115 146 0
118 148 0
116 149 0
117 151 0
116 149 0
116 151 0
116 149 0
116 150 0
116 150 0
112 146 0
117 150 0
116 149 0
112 146 0
111 143 0
110 143 0
112 145 0
114 148 0
115 148 0
113 146 0
116 148 0
112 143 0
107 140 0
107 139 0
113 144 0
104 134 0
50 76 81
15 38 124
15 38 127
14 37 126
14 36 127
14 37 126
14 37 125
15 39 126
15 38 127
14 38 126
15 38 122
15 38 119
15 38 122
15 38 126
15 39 121
14 38 119
14 38 116
15 38 119
15 38 117
15 38 116
14 37 112
15 38 121
15 38 117
15 38 116
15 38 116
15 37 102
14 37 100
15 38 107
15 38 112
12 29 62
8 14 7
24 30 9
80 78 0
90 87 0
87 84 0
92 89 0
93 90 0
91 88 0
93 90 0
87 84 0
92 89 0
91 87 0
91 87 0
91 87 0
91 85 0
106 125 0
113 139 0
117 144 0
116 144 0
115 147 0
113 142 0
114 144 0
114 145 0
111 145 0
117 151 0
113 146 0
115 149 0
116 148 0
115 150 0
117 151 0
113 146 0
116 150 0
113 146 0
110 143 0
115 149 0
113 145 0
117 151 0
112 145 0
107 140 0
112 145 0
111 144 0
110 142 0
113 146 0
109 141 0
110 144 0
28 51 107
14 37 126
14 36 126
14 36 127
14 37 127
14 36 125
15 38 125
14 37 126
14 37 122
15 38 121
14 37 122
14 37 124
14 38 122
15 38 125
15 38 119
15 38 119
15 39 119
15 38 115
15 38 116
15 38 119
15 38 112
15 38 119
15 38 112
15 38 108
15 38 108
15 38 112
15 37 106
15 37 111
15 37 99
13 33 80
11 17 6
50 51 3
71 69 0
77 75 0
83 81 0
85 83 0
89 86 0
87 84 0
87 84 0
90 87 0
90 86 0
90 86 0
90 86 0
89 82 0
98 102 0
114 139 0
111 138 0
114 145 0
117 146 0
113 141 0
116 145 0
115 145 0
118 149 0
116 149 0
117 149 0
114 148 0
111 144 0
116 151 0
116 150 0
126 158 28
141 172 81
160 189 140
169 197 174
171 199 184
175 202 194
165 193 163
163 191 148
141 172 81
118 151 10
116 149 0
110 143 0
107 141 0
106 137 0
109 142 0
92 122 14
15 38 125
14 36 126
13 35 123
14 36 127
14 37 125
14 36 125
14 37 125
14 37 126
15 38 125
14 37 124
14 37 119
14 37 119
15 38 120
15 38 119
15 38 117
15 38 115
15 39 124
15 38 117
15 38 111
15 38 120
15 38 108
15 38 107
15 38 113
15 37 110
15 38 104
15 37 99
15 38 114
15 37 104
15 37 97
15 37 98
36 39 6
58 57 0
63 61 0
70 67 0
73 70 0
76 73 0
85 82 0
88 84 0
86 83 0
90 85 0
84 80 0
89 84 0
89 82 0
90 86 0
114 135 0
112 137 0
114 140 0
113 137 0
117 148 0
113 142 0
117 145 0
115 146 0
117 148 0
114 148 0
113 146 0
118 151 0
118 152 7
154 183 115
173 201 194
186 214 253
183 212 255
179 210 255
177 208 255
176 208 255
176 208 255
178 209 255
180 210 255
183 212 255
188 215 253
174 201 186
145 175 94
111 144 5
106 137 0
107 139 0
88 117 23
13 33 122
13 34 124
13 34 127
13 34 126
14 36 122
14 36 122
14 36 124
14 37 122
14 36 122
15 38 122
15 37 120
14 37 117
14 37 116
15 37 121
15 38 119
15 38 116
14 37 115
15 38 106
14 37 111
15 38 113
14 37 102
15 38 108
14 37 103
15 37 102
15 38 112
14 37 101
15 37 104
15 37 97
15 37 94
15 37 93
47 50 20
53 51 0
64 61 0
79 76 0
77 72 0
75 71 0
82 78 0
85 79 0
84 80 0
82 77 0
85 79 0
87 80 0
88 79 0
106 119 0
113 138 0
110 135 0
110 136 0
111 134 0
116 147 0
115 143 0
113 141 0
114 141 0
113 144 0
119 153 0
114 148 0
148 178 99
180 207 220
183 212 255
177 208 255
172 206 255
168 203 255
166 202 255
164 201 255
164 200 255
163 200 255
165 201 255
167 202 255
171 205 255
174 207 255
179 210 255
186 214 255
176 203 197
131 163 63
73 102 49
84 112 29
12 32 122
13 35 125
12 32 124
13 34 124
14 36 126
14 35 124
14 36 125
14 36 117
14 36 124
14 37 120
14 37 117
15 38 115
15 38 117
15 38 116
14 37 115
15 38 112
15 38 112
15 38 115
15 38 115
15 38 115
15 38 111
14 37 106
15 37 102
15 37 104
15 37 101
14 37 101
14 37 101
14 36 94
15 38 102
14 36 91
45 49 20
61 58 0
55 53 0
64 61 0
71 66 0
77 73 0
80 74 0
83 76 0
79 73 0
82 76 0
82 75 0
86 79 0
100 107 0
111 133 0
106 126 0
112 136 0
109 136 0
113 138 0
109 134 0
112 137 0
114 144 0
114 144 0
116 144 0
123 155 28
169 196 176
184 213 255
177 209 255
170 204 255
165 201 255
161 199 255
158 197 255
156 196 255
155 195 255
154 194 255
154 195 255
156 196 255
157 197 255
160 198 255
164 200 255
168 203 255
174 207 255
180 210 255
189 216 255
39 63 145
25 47 109
13 33 123
11 30 126
12 32 121
12 32 122
13 35 124
13 35 126
14 36 124
14 36 122
14 37 119
14 36 112
15 37 117
15 38 116
15 38 117
15 38 110
15 38 113
15 38 119
14 37 111
15 38 115
15 37 108
15 38 116
15 38 113
15 38 111
15 38 110
15 37 107
15 38 107
14 36 90
15 38 106
15 37 93
14 37 102
15 37 88
42 46 25
54 52 0
57 52 0
65 58 0
63 57 0
69 63 0
73 67 0
78 70 0
75 66 0
77 68 0
87 78 0
99 104 0
106 123 0
111 130 0
115 137 0
114 137 0
106 129 0
112 141 0
112 138 0
114 143 0
114 141 0
115 143 0
113 141 0
187 213 238
182 211 255
173 206 255
166 202 255
160 198 255
156 196 255
152 194 255
150 192 255
148 191 255
147 190 255
147 190 255
147 190 255
148 191 255
150 192 255
152 194 255
156 196 255
160 198 255
165 201 255
172 205 255
178 209 255
111 138 200
15 38 127
13 33 126
11 31 119
11 29 121
12 32 126
12 33 123
13 34 124
12 32 120
14 35 116
14 36 119
14 36 116
14 37 115
14 37 121
14 37 108
14 37 107
15 38 113
14 37 103
15 37 113
14 37 108
15 37 111
15 38 106
15 38 106
15 38 117
15 38 108
15 37 106
14 37 103
15 37 98
14 36 90
15 37 99
14 36 84
14 35 84
40 42 16
53 46 0
52 45 0
54 49 0
68 59 0
63 56 0
68 60 0
70 59 0
77 68 0
94 90 0
101 112 0
98 109 0
100 113 0
98 110 0
107 128 0
110 131 0
106 126 0
109 130 0
108 133 0
113 137 0
112 140 0
114 143 0
115 141 0
181 211 255
171 205 255
164 200 255
158 197 255
153 194 255
149 192 255
146 190 255
144 189 255
142 187 255
141 187 255
141 187 255
141 187 255
142 187 255
144 189 255
146 190 255
150 192 255
154 194 255
158 197 255
164 200 255
171 205 255
178 209 255
51 75 156
14 36 126
13 35 125
10 27 124
10 28 118
12 31 120
13 34 119
12 33 120
13 35 116
14 36 112
14 36 112
15 37 120
14 36 107
14 36 111
15 38 110
15 37 107
14 37 106
15 38 112
15 37 106
15 38 102
15 38 110
15 37 99
14 37 94
15 37 101
15 37 101
14 36 92
15 37 94
15 37 89
14 37 89
14 36 81
14 36 83
38 34 12
42 33 0
53 44 0
53 43 0
66 54 0
57 47 0
64 52 0
75 68 0
92 95 0
94 98 0
97 106 0
104 117 0
99 113 0
108 128 0
110 131 0
107 130 0
113 140 0
109 132 0
108 134 0
110 136 0
112 134 0
116 143 0
111 139 0
170 204 255
164 200 255
158 197 255
152 193 255
147 191 255
144 188 255
141 187 255
139 185 255
117 157 255
85 114 255
68 92 255
74 100 255
91 122 255
105 140 255
134 176 255
145 189 255
149 191 255
153 194 255
158 197 255
165 201 255
171 205 255
134 163 221
15 38 127
14 36 124
12 32 122
7 20 122
9 24 124
11 30 124
13 34 121
13 33 112
13 35 108
14 35 115
14 35 106
14 35 107
14 36 103
15 37 104
15 37 110
14 36 104
15 38 104
15 37 110
14 37 104
14 37 102
15 37 103
15 37 98
15 37 101
14 36 88
15 38 106
14 36 92
15 37 93
14 36 91
14 35 80
14 35 79
48 49 6
50 45 0
50 45 0
51 46 0
55 52 0
77 77 0
73 75 0
75 75 0
88 92 0
95 105 0
98 107 0
105 118 0
97 109 0
104 120 0
105 125 0
102 125 0
111 132 0
109 131 0
109 133 0
111 138 0
111 137 0
115 142 0
113 142 0
164 201 255
158 197 255
152 193 255
147 190 255
143 188 255
135 180 255
84 112 255
31 42 255
5 7 255
5 7 255
3 5 255
6 9 255
2 3 255
8 11 255
6 9 255
38 50 255
103 135 255
150 192 255
155 195 255
160 198 255
167 202 255
174 207 255
69 95 170
14 37 122
14 36 121
12 30 120
7 19 117
10 26 111
13 34 116
12 32 111
14 36 120
14 36 115
13 34 115
14 36 104
14 36 99
14 37 102
14 37 102
15 37 108
15 38 95
14 37 97
15 37 98
14 36 89
15 37 104
15 38 107
15 37 99
15 37 95
14 37 95
14 36 83
14 35 78
14 36 87
14 34 73
17 36 67
66 70 0
57 62 0
66 65 0
62 61 0
68 69 0
74 74 0
71 71 0
84 92 0
87 95 0
93 101 0
99 108 0
101 117 0
96 109 0
106 123 0
106 125 0
104 125 0
112 139 0
108 132 0
108 133 0
111 137 0
112 139 0
111 141 0
114 144 0
159 198 255
153 194 255
148 191 255
143 188 255
101 134 255
16 22 255
9 12 255
7 10 255
10 14 255
5 7 255
3 5 255
11 16 255
3 5 255
6 9 255
6 9 255
4 5 255
7 9 255
38 49 255
136 174 255
157 196 255
163 200 255
170 204 255
146 176 231
18 41 127
14 36 120
13 34 117
9 24 112
9 24 113
12 31 107
12 31 108
13 34 109
15 37 117
13 34 112
13 35 94
14 36 107
14 36 99
14 36 92
15 37 99
15 37 98
14 36 95
14 36 93
15 37 95
15 37 87
14 36 92
15 37 92
15 37 94
15 37 88
15 38 98
14 35 72
15 36 85
13 35 72
27 44 57
57 60 0
70 76 0
68 72 0
70 73 0
74 76 0
84 90 0
80 84 0
93 102 0
85 95 0
98 108 0
93 110 0
101 115 0
103 125 0
109 132 0
110 132 0
107 130 0
108 132 0
108 132 0
110 138 0
113 143 0
110 136 0
113 140 0
112 141 0
155 195 255
150 192 255
145 189 255
79 105 255
2 3 255
4 5 255
1 1 255
5 7 255
6 9 255
1 1 255
5 7 255
7 10 255
6 9 255
6 9 255
2 3 255
5 7 255
0 0 255
10 13 255
24 30 255
121 152 255
161 199 255
167 203 255
175 207 255
96 122 186
15 38 121
14 36 113
12 32 116
7 19 114
9 24 110
13 33 113
13 34 107
13 34 101
14 36 102
14 35 103
15 37 104
14 36 102
14 36 99
14 35 99
15 37 101
15 37 97
14 36 83
14 36 87
14 36 84
15 37 95
15 37 97
14 36 83
14 36 81
14 36 87
14 35 71
14 35 74
14 35 74
52 65 19
66 77 0
68 77 0
69 75 0
78 90 0
79 90 0
82 92 0
82 85 0
79 90 0
93 104 0
93 108 0
98 114 0
102 124 0
100 119 0
102 121 0
101 124 0
104 127 0
114 143 0
104 129 0
111 138 0
110 136 0
107 134 0
112 141 0
114 143 0
154 194 255
148 191 255
56 73 255
4 5 255
4 5 255
3 5 255
7 10 255
2 3 255
2 3 255
3 5 255
3 5 255
5 7 255
3 5 255
7 10 255
4 5 255
5 7 255
4 5 255
5 7 255
8 11 255
18 23 255
136 168 255
165 201 255
173 206 255
162 192 240
28 52 131
14 36 112
14 35 107
9 24 100
9 24 106
12 31 99
13 34 101
13 32 94
14 35 104
14 35 94
13 34 94
15 37 97
14 36 102
14 35 99
15 37 98
14 36 92
14 36 88
14 36 87
14 35 75
14 35 74
14 36 84
14 35 84
14 36 87
14 36 72
14 36 78
14 35 71
14 33 65
63 71 0
67 81 0
70 82 0
79 92 0
80 94 0
76 87 0
81 94 0
83 96 0
81 93 0
77 92 0
96 113 0
100 115 0
96 116 0
99 122 0
106 128 0
109 133 0
104 125 0
108 133 0
109 135 0
104 129 0
109 132 0
110 137 0
112 139 0
107 136 0
151 193 255
85 110 255
5 7 255
4 5 255
5 7 255
5 7 255
1 1 255
10 13 255
69 85 255
122 155 255
138 174 255
140 175 255
139 174 255
112 138 255
71 87 255
7 9 255
2 3 255
4 5 255
7 9 255
9 11 255
35 43 255
157 191 255
171 205 255
179 210 255
96 122 180
15 38 110
14 36 104
11 29 102
8 20 103
11 27 99
11 30 93
12 32 98
13 33 93
14 35 99
14 35 94
14 35 92
14 37 92
14 37 93
14 35 89
14 36 83
14 35 85
14 36 80
15 37 97
14 36 87
14 36 81
14 35 76
14 36 80
14 36 66
14 35 74
14 34 76
43 60 19
68 81 0
74 89 0
76 89 0
68 81 0
81 96 0
77 91 0
86 100 0
89 109 0
95 114 0
90 109 0
98 113 0
95 114 0
97 119 0
100 122 0
100 120 0
98 120 0
97 119 0
109 135 0
108 133 0
111 140 0
107 136 0
106 131 0
106 135 0
109 137 0
113 145 255
10 13 255
4 5 255
4 5 255
5 7 255
6 9 255
63 78 255
142 178 255
93 119 255
21 28 255
14 20 255
8 11 255
9 12 255
38 49 255
102 126 255
130 158 255
32 39 253
1 1 255
1 1 255
6 7 255
15 19 255
83 101 255
171 205 255
178 209 255
183 210 253
33 56 129
14 36 104
13 34 103
8 22 84
10 27 87
12 30 90
12 31 96
14 35 95
14 35 94
13 33 79
14 35 85
14 35 89
14 35 83
14 35 81
14 35 89
14 35 83
14 35 87
14 36 83
14 35 74
14 35 72
14 35 78
13 34 71
14 36 78
14 35 74
18 39 53
66 83 1
63 76 0
69 85 0
75 92 0
75 90 0
77 94 0
77 94 0
85 102 0
94 114 0
85 103 0
95 118 0
86 103 0
100 122 0
102 121 0
97 118 0
102 125 0
100 121 0
105 126 0
106 133 0
100 125 0
110 137 0
108 135 0
104 131 0
110 137 0
112 138 0
29 36 255
5 7 255
1 1 255
6 9 255
9 12 255
76 93 255
127 158 255
25 32 255
13 18 255
10 14 255
10 14 255
7 10 255
8 10 255
12 16 255
11 15 255
49 60 255
145 175 245
30 38 244
7 9 255
6 7 255
9 11 255
16 20 255
144 172 255
179 209 255
186 214 255
116 140 189
14 35 94
14 36 103
10 26 91
9 22 87
12 31 88
13 33 94
13 32 76
14 35 101
14 34 87
13 34 70
14 35 92
14 35 83
14 35 84
14 36 79
14 35 85
14 35 76
13 34 60
14 35 81
13 33 70
14 35 70
13 34 56
14 34 65
14 35 71
45 63 21
60 74 0
68 84 0
69 88 0
79 101 0
83 102 0
74 93 0
76 91 0
92 115 0
83 103 0
94 117 0
96 117 0
99 123 0
100 126 0
98 119 0
99 124 0
103 124 0
111 137 0
100 122 0
103 131 0
106 131 0
108 133 0
112 137 0
113 140 0
112 142 0
111 140 0
7 9 255
4 5 255
4 5 255
7 9 255
55 67 255
120 148 255
16 20 255
8 10 255
15 21 255
7 10 255
12 18 255
7 10 255
15 21 255
9 12 255
11 14 255
13 17 255
27 33 255
112 137 216
3 5 252
4 5 255
4 5 255
11 14 255
69 82 255
179 210 255
186 214 255
191 216 248
24 47 90
14 34 92
12 30 87
8 20 72
11 28 61
11 29 63
13 33 83
13 33 81
14 36 85
13 34 74
13 34 80
14 34 79
13 33 62
15 36 88
14 35 70
14 35 76
13 33 61
14 35 63
14 35 69
14 34 65
12 32 51
13 33 60
26 42 33
52 67 0
68 85 0
80 98 0
80 101 0
71 90 0
77 99 0
82 102 0
77 97 0
83 104 0
83 103 0
96 117 0
94 118 0
92 112 0
89 110 0
97 120 0
95 119 0
100 125 0
96 121 0
103 129 0
109 138 0
106 136 0
108 138 0
109 137 0
110 138 0
108 134 0
108 136 0
4 5 255
4 5 255
4 5 255
7 9 255
152 182 255
24 31 255
6 9 255
2 3 255
10 14 255
11 16 255
9 12 255
15 20 245
6 9 255
10 14 255
11 15 255
11 15 255
25 31 255
81 96 254
47 61 215
7 9 255
6 8 255
5 6 255
28 33 255
181 211 255
188 215 255
189 214 235
77 106 35
14 36 80
13 32 72
9 24 47
9 24 60
11 29 66
12 30 65
12 31 62
13 32 76
13 32 81
14 34 76
13 34 70
13 33 71
13 34 65
13 33 66
13 32 60
13 33 61
14 35 67
14 34 62
13 33 66
13 33 65
23 41 38
60 75 1
66 83 0
73 91 0
66 83 0
80 100 0
78 98 0
73 93 0
73 93 0
82 103 0
84 106 0
97 121 0
100 125 0
92 116 0
91 117 0
92 116 0
107 134 0
103 129 0
108 137 0
99 126 0
105 132 0
109 136 0
101 129 0
107 135 0
108 137 0
106 136 0
112 140 0
113 142 0
9 11 255
4 5 255
2 3 255
77 90 255
103 124 255
7 9 255
8 11 255
10 14 255
8 11 255
63 82 166
89 115 53
94 122 33
85 111 48
33 42 207
8 11 255
10 13 255
10 13 255
18 22 255
130 153 222
12 16 254
1 2 255
8 10 255
1 2 255
159 184 255
189 216 255
177 204 197
112 145 6
21 43 74
14 35 87
10 26 54
11 28 45
10 26 45
11 28 43
12 31 67
11 30 52
12 30 71
12 31 57
12 31 49
13 34 65
14 34 67
13 33 52
13 32 56
13 33 63
13 32 53
11 30 44
12 31 39
23 40 29
54 72 2
53 70 0
72 92 0
64 85 0
74 97 0
89 111 0
77 99 0
81 102 0
77 98 0
89 113 0
86 107 0
89 114 0
89 109 0
96 118 0
95 118 0
87 111 0
100 126 0
95 121 0
101 127 0
105 133 0
105 133 0
102 132 0
111 142 0
109 138 0
110 140 0
109 139 0
106 135 0
110 138 0
4 5 255
6 7 255
4 5 255
136 158 255
32 40 255
16 20 255
8 11 255
11 14 255
59 78 127
93 122 17
103 135 30
101 132 40
103 135 28
97 126 33
29 37 202
11 15 255
13 17 255
15 18 255
93 108 209
20 28 212
5 6 255
3 4 255
8 10 255
135 156 255
191 217 255
159 188 130
114 146 0
62 88 38
12 32 56
8 22 42
8 22 34
9 25 33
11 28 48
11 29 52
11 28 44
12 31 51
12 32 57
13 32 61
13 33 47
12 31 46
13 33 52
13 33 56
13 32 56
12 31 53
12 31 48
23 39 23
44 58 0
53 71 0
63 82 0
68 87 0
74 94 0
74 98 0
85 110 0
78 99 0
90 112 0
88 113 0
84 105 0
90 114 0
101 129 0
86 109 0
93 119 0
105 132 0
97 122 0
97 122 0
102 130 0
100 127 0
99 124 0
110 138 0
107 135 0
101 129 0
108 140 0
104 134 0
107 136 0
104 134 0
110 140 0
9 11 255
3 3 255
12 14 255
162 187 253
19 24 255
10 13 255
17 22 255
23 30 235
99 130 23
94 122 20
100 130 28
100 129 35
88 115 40
81 106 28
70 93 89
10 13 255
7 9 255
10 12 255
77 93 181
44 56 165
10 12 255
8 10 255
9 10 255
119 136 255
194 219 255
142 172 71
116 148 0
89 116 8
17 37 51
16 30 25
18 32 21
9 23 23
10 26 33
11 28 33
10 27 37
12 30 51
12 31 46
12 30 40
12 30 47
10 27 33
13 32 52
12 32 49
12 30 39
17 36 38
40 57 3
52 68 0
56 73 0
56 75 0
69 91 0
72 95 0
65 83 0
71 91 0
63 80 0
76 99 0
91 116 0
88 114 0
82 107 0
80 103 0
97 121 0
93 121 0
94 119 0
97 122 0
97 124 0
99 128 0
106 136 0
98 124 0
105 132 0
104 131 0
102 130 0
104 134 0
104 134 0
111 143 0
114 145 0
112 143 0
108 139 0
4 6 255
6 7 255
27 33 232
143 164 255
17 21 255
4 5 255
7 9 255
40 51 186
100 130 25
101 132 43
104 134 53
89 117 33
102 131 42
68 88 61
88 115 43
4 5 255
9 11 255
11 14 255
59 75 153
62 79 142
3 4 255
7 8 255
7 8 255
90 102 255
184 209 215
120 154 0
113 146 0
99 128 0
42 61 16
28 41 15
30 42 0
22 32 7
11 23 17
9 24 29
10 25 31
10 26 33
10 27 46
11 29 31
11 29 31
11 29 33
11 28 34
19 35 28
31 45 8
43 58 0
46 61 0
49 65 0
36 50 0
57 76 0
65 83 0
68 90 0
71 92 0
81 104 0
81 104 0
87 111 0
82 105 0
93 120 0
79 104 0
85 109 0
93 120 0
89 114 0
96 124 0
96 123 0
99 125 0
97 122 0
100 127 0
99 126 0
99 129 0
103 133 0
103 131 0
109 139 0
112 143 0
110 141 0
113 142 0
112 143 0
104 133 0
6 8 255
4 5 255
28 35 215
133 152 250
6 7 255
5 6 255
9 11 255
46 60 174
101 129 33
104 134 28
101 129 40
105 134 53
81 105 40
91 116 40
71 92 38
9 11 255
9 12 255
13 15 255
44 56 174
55 70 135
8 10 255
5 6 255
13 15 255
125 140 255
145 175 81
120 154 0
111 142 0
91 117 0
52 70 1
34 45 2
39 52 0
32 43 0
29 39 0
26 36 1
24 33 1
18 29 16
14 25 10
24 37 8
27 41 10
25 37 5
34 45 0
36 48 0
43 59 0
53 69 0
55 73 0
54 73 0
56 73 0
71 94 0
60 80 0
73 96 0
80 102 0
75 101 0
78 101 0
83 108 0
86 111 0
92 118 0
95 124 0
102 130 0
101 128 0
104 134 0
97 125 0
94 121 0
101 131 0
99 128 0
103 133 0
102 130 0
105 134 0
103 132 0
102 130 0
111 142 0
108 138 0
111 141 0
110 139 0
109 139 0
110 142 0
5 6 255
4 6 255
15 19 230
117 136 189
14 18 255
8 10 255
12 15 255
22 28 225
96 122 38
98 125 33
96 122 43
89 113 38
75 95 43
90 112 23
62 78 143
7 8 255
17 20 253
6 8 248
65 82 125
50 63 163
5 6 255
5 6 255
1 2 255
97 115 163
117 152 0
115 146 0
107 139 0
90 117 0
72 94 0
39 53 0
50 66 0
54 69 0
42 55 0
38 50 0
39 52 0
22 32 0
28 38 0
40 53 0
36 49 0
42 55 0
40 54 0
36 49 0
44 58 0
49 66 0
64 82 0
58 79 0
68 89 0
63 84 0
72 96 0
65 86 0
75 98 0
82 109 0
79 104 0
81 106 0
78 101 0
88 113 0
93 120 0
100 127 0
96 124 0
99 127 0
86 112 0
96 120 0
96 122 0
103 130 0
105 137 0
106 136 0
98 126 0
103 133 0
107 135 0
112 140 0
110 140 0
106 138 0
111 141 0
110 140 0
110 141 0
3 4 255
6 8 255
9 11 253
114 143 61
11 13 253
12 14 255
13 16 255
10 12 255
72 91 115
91 115 35
88 110 46
71 90 30
73 91 38
72 89 63
26 31 238
15 17 255
15 18 245
9 11 250
87 112 63
9 12 227
3 4 255
7 8 255
5 6 255
104 132 35
116 150 0
112 144 0
110 141 0
101 130 0
62 82 0
46 61 0
40 53 0
34 48 0
39 52 0
33 46 0
50 66 0
38 52 0
49 65 0
48 62 0
38 53 0
39 53 0
54 74 0
50 67 0
58 77 0
49 67 0
64 84 0
66 88 0
67 88 0
80 103 0
59 79 0
81 107 0
81 107 0
72 96 0
80 105 0
87 111 0
82 108 0
97 124 0
94 120 0
98 126 0
90 117 0
101 131 0
89 114 0
97 125 0
96 121 0
103 134 0
99 127 0
108 136 0
104 134 0
103 133 0
103 132 0
106 137 0
105 137 0
108 140 0
105 135 0
115 144 0
113 145 0
8 10 255
3 4 255
12 14 255
84 107 97
57 72 166
13 15 255
14 16 255
22 27 255
19 23 240
66 83 112
70 87 71
73 89 53
55 67 112
26 32 220
12 14 255
14 16 245
6 8 248
19 24 217
85 110 63
0 0 255
9 10 255
5 6 253
3 3 253
112 147 7
113 147 0
112 145 0
102 132 0
86 113 0
80 103 0
39 54 0
71 91 0
45 61 0
60 78 0
30 41 0
53 70 0
34 48 0
27 39 0
51 69 0
51 69 0
38 53 0
51 69 0
51 68 0
72 94 0
57 77 0
68 91 0
80 105 0
69 92 0
80 106 0
80 105 0
73 96 0
87 114 0
84 110 0
89 117 0
96 124 0
86 112 0
85 112 0
92 120 0
93 119 0
96 125 0
99 129 0
103 132 0
104 134 0
104 135 0
98 127 0
105 133 0
104 133 0
98 128 0
100 130 0
109 141 0
109 140 0
107 137 0
103 134 0
110 140 0
112 144 0
109 142 0
