P3
75 42
255
163 200 255
162 199 255
162 199 255
161 199 255
161 199 255
160 198 255
160 198 255
159 198 255
158 197 255
158 197 255
157 197 255
157 196 255
156 196 255
156 196 255
155 195 255
154 195 255
154 194 255
153 194 255
153 194 255
152 193 255
151 193 255
151 193 255
150 192 255
150 192 255
149 192 255
149 191 255
148 191 255
148 191 255
147 191 255
147 190 255
147 190 255
146 190 255
146 190 255
146 190 255
146 190 255
146 190 255
146 190 255
146 190 255
146 190 255
146 190 255
146 190 255
146 190 255
146 190 255
147 190 255
147 190 255
147 191 255
148 191 255
148 191 255
149 191 255
149 192 255
150 192 255
150 192 255
151 193 255
152 193 255
152 193 255
153 194 255
153 194 255
154 194 255
154 195 255
155 195 255
156 196 255
156 196 255
157 196 255
157 197 255
158 197 255
158 197 255
159 198 255
159 198 255
160 198 255
161 199 255
161 199 255
162 199 255
162 199 255
163 200 255
163 200 255
164 200 255
163 200 255
163 200 255
162 200 255
162 199 255
161 199 255
161 199 255
160 198 255
160 198 255
159 198 255
158 197 255
158 197 255
157 197 255
157 196 255
156 196 255
156 196 255
155 195 255
154 195 255
154 195 255
153 194 255
153 194 255
152 193 255
151 193 255
151 193 255
150 192 255
150 192 255
149 192 255
149 192 255
149 191 255
148 191 255
148 191 255
148 191 255
147 191 255
147 190 255
147 190 255
147 190 255
147 190 255
147 190 255
147 190 255
147 190 255
147 190 255
147 191 255
148 191 255
148 191 255
148 191 255
149 191 255
149 192 255
150 192 255
150 192 255
151 193 255
151 193 255
152 193 255
152 193 255
153 194 255
153 194 255
154 194 255
154 195 255
155 195 255
156 196 255
156 196 255
157 196 255
157 197 255
158 197 255
159 197 255
159 198 255
159 198 255
160 198 255
161 199 255
161 199 255
162 199 255
162 200 255
163 200 255
163 200 255
164 200 255
164 201 255
165 201 255
164 201 255
164 201 255
163 200 255
163 200 255
162 200 255
162 199 255
161 199 255
161 199 255
160 198 255
160 198 255
159 198 255
159 197 255
158 197 255
157 197 255
157 196 255
156 196 255
156 196 255
155 195 255
154 195 255
154 194 255
153 194 255
153 194 255
152 194 255
152 193 255
151 193 255
151 193 255
150 192 255
150 192 255
149 192 255
149 192 255
149 191 255
149 191 255
148 191 255
148 191 255
148 191 255
148 191 255
148 191 255
148 191 255
148 191 255
148 191 255
149 191 255
149 191 255
149 192 255
149 192 255
150 192 255
150 192 255
151 193 255
151 193 255
152 193 255
152 194 255
153 194 255
153 194 255
154 194 255
155 195 255
155 195 255
156 196 255
156 196 255
157 196 255
157 197 255
158 197 255
159 197 255
159 198 255
160 198 255
160 198 255
161 199 255
161 199 255
162 199 255
162 200 255
163 200 255
163 200 255
164 201 255
164 201 255
165 201 255
165 201 255
166 202 255
165 201 255
165 201 255
165 201 255
164 201 255
164 200 255
163 200 255
163 200 255
162 199 255
162 199 255
161 199 255
160 198 255
160 198 255
159 198 255
159 197 255
158 197 255
158 197 255
157 196 255
156 196 255
156 196 255
155 195 255
155 195 255
154 195 255
154 194 255
153 194 255
152 194 255
152 193 255
152 193 255
151 193 255
151 193 255
150 192 255
150 192 255
150 192 255
150 192 255
149 192 255
149 192 255
149 192 255
149 192 255
149 192 255
149 192 255
150 192 255
150 192 255
150 192 255
150 192 255
151 193 255
151 193 255
152 193 255
152 193 255
152 194 255
153 194 255
154 194 255
154 195 255
155 195 255
155 195 255
156 196 255
156 196 255
157 196 255
158 197 255
158 197 255
159 197 255
159 198 255
160 198 255
160 198 255
161 199 255
162 199 255
162 199 255
163 200 255
163 200 255
164 200 255
164 201 255
165 201 255
165 201 255
166 202 255
166 202 255
166 202 255
167 203 255
167 202 255
166 202 255
166 202 255
165 201 255
165 201 255
164 201 255
164 201 255
163 200 255
163 200 255
162 200 255
162 199 255
161 199 255
161 199 255
160 198 255
160 198 255
159 198 255
158 197 255
158 197 255
157 197 255
157 196 255
156 196 255
155 195 255
155 195 255
154 195 255
154 195 255
153 194 255
153 194 255
153 194 255
152 193 255
152 193 255
152 193 255
151 193 255
151 193 255
151 193 255
151 193 255
151 193 255
151 193 255
151 193 255
151 193 255
151 193 255
151 193 255
152 193 255
152 193 255
152 193 255
152 194 255
153 194 255
153 194 255
154 195 255
154 195 255
155 195 255
156 196 255
156 196 255
157 196 255
157 196 255
158 197 255
158 197 255
159 198 255
160 198 255
160 198 255
161 199 255
161 199 255
162 199 255
162 200 255
163 200 255
163 200 255
164 200 255
164 201 255
165 201 255
165 201 255
166 202 255
166 202 255
167 202 255
167 202 255
168 203 255
168 203 255
168 203 255
168 203 255
167 202 255
167 202 255
166 202 255
166 202 255
165 201 255
165 201 255
164 201 255
164 200 255
163 200 255
163 200 255
162 199 255
162 199 255
161 199 255
160 198 255
160 198 255
159 198 255
159 197 255
158 197 255
158 197 255
157 196 255
156 196 255
156 196 255
155 195 255
155 195 255
154 195 255
154 195 255
154 194 255
153 194 255
153 194 255
153 194 255
152 194 255
152 194 255
152 194 255
152 193 255
152 193 255
152 194 255
152 194 255
152 194 255
153 194 255
153 194 255
153 194 255
154 194 255
154 195 255
154 195 255
155 195 255
155 195 255
156 196 255
157 196 255
157 196 255
158 197 255
158 197 255
159 197 255
159 198 255
160 198 255
160 198 255
161 199 255
162 199 255
162 199 255
163 200 255
163 200 255
164 200 255
164 201 255
165 201 255
165 201 255
166 202 255
166 202 255
167 202 255
167 202 255
168 203 255
168 203 255
168 203 255
169 203 255
170 204 255
169 204 255
169 204 255
168 203 255
168 203 255
168 203 255
167 202 255
167 202 255
166 202 255
166 202 255
165 201 255
165 201 255
164 201 255
164 200 255
163 200 255
162 200 255
162 199 255
161 199 255
161 199 255
160 198 255
160 198 255
159 198 255
159 197 255
158 197 255
158 197 255
157 196 255
157 196 255
156 196 255
156 196 255
155 195 255
155 195 255
155 195 255
154 195 255
154 195 255
154 195 255
154 194 255
154 194 255
154 194 255
154 195 255
154 195 255
154 195 255
154 195 255
155 195 255
155 195 255
155 195 255
156 196 255
156 196 255
157 196 255
157 196 255
158 197 255
158 197 255
159 197 255
159 198 255
160 198 255
160 198 255
161 199 255
161 199 255
162 199 255
162 200 255
163 200 255
164 200 255
164 201 255
164 201 255
165 201 255
166 202 255
166 202 255
167 202 255
167 202 255
167 203 255
168 203 255
168 203 255
169 204 255
169 204 255
170 204 255
170 204 255
171 205 255
171 205 255
170 204 255
170 204 255
169 204 255
169 204 255
169 203 255
168 203 255
168 203 255
167 202 255
167 202 255
166 202 255
166 202 255
165 201 255
165 201 255
164 201 255
164 200 255
163 200 255
162 200 255
162 199 255
161 199 255
161 199 255
160 198 255
160 198 255
159 198 255
159 197 255
158 197 255
158 197 255
157 197 255
157 196 255
157 196 255
156 196 255
156 196 255
156 196 255
156 196 255
155 195 255
156 196 255
155 195 255
156 196 255
156 196 255
156 196 255
156 196 255
156 196 255
157 196 255
157 196 255
157 197 255
158 197 255
158 197 255
159 197 255
159 198 255
160 198 255
160 198 255
161 199 255
161 199 255
162 199 255
162 200 255
163 200 255
163 200 255
164 201 255
165 201 255
165 201 255
166 202 255
166 202 255
167 202 255
167 202 255
168 203 255
168 203 255
169 203 255
169 204 255
169 204 255
170 204 255
170 204 255
171 205 255
171 205 255
171 205 255
172 206 255
172 205 255
172 205 255
171 205 255
171 205 255
170 204 255
170 204 255
170 204 255
169 204 255
169 203 255
168 203 255
168 203 255
167 203 255
167 202 255
166 202 255
166 202 255
165 201 255
165 201 255
164 201 255
164 200 255
163 200 255
162 200 255
162 199 255
161 199 255
161 199 255
160 198 255
160 198 255
160 198 255
159 198 255
159 197 255
158 197 255
158 197 255
158 197 255
158 197 255
157 197 255
157 197 255
157 197 255
157 197 255
157 197 255
157 197 255
158 197 255
158 197 255
158 197 255
158 197 255
159 197 255
159 198 255
159 198 255
160 198 255
161 199 255
161 199 255
162 199 255
162 199 255
162 200 255
163 200 255
163 200 255
164 201 255
165 201 255
165 201 255
166 202 255
166 202 255
167 202 255
167 202 255
168 203 255
168 203 255
169 203 255
169 204 255
169 204 255
170 204 255
170 204 255
171 205 255
171 205 255
172 205 255
172 205 255
172 206 255
173 206 255
174 206 255
173 206 255
173 206 255
173 206 255
172 206 255
171 205 255
170 204 255
168 203 255
166 202 255
165 201 255
166 202 255
166 202 255
168 203 255
168 203 255
168 203 255
167 203 255
167 202 255
166 202 255
166 202 255
165 201 255
165 201 255
164 201 255
164 200 255
163 200 255
163 200 255
162 200 255
162 199 255
161 199 255
161 199 255
161 199 255
160 198 255
160 198 255
160 198 255
159 198 255
151 188 248
127 163 226
113 147 213
105 138 203
132 167 230
143 180 241
159 198 255
160 198 255
160 198 255
160 198 255
161 199 255
161 199 255
161 199 255
162 199 255
162 200 255
163 200 255
163 200 255
164 200 255
164 201 255
165 201 255
165 201 255
166 202 255
166 202 255
167 202 255
167 203 255
168 203 255
165 199 249
159 189 237
143 167 219
150 175 227
129 149 212
147 169 206
141 161 202
157 186 239
165 197 249
172 205 253
173 206 255
173 206 255
173 206 255
174 206 255
174 207 255
175 207 255
173 206 255
168 203 255
164 200 255
157 197 255
153 194 255
149 192 255
147 190 255
144 189 255
142 187 255
142 187 255
142 187 255
142 187 255
145 189 255
150 192 255
157 196 255
162 200 255
167 202 255
168 203 255
167 202 255
167 202 255
166 202 255
166 202 255
165 201 255
165 201 255
164 201 255
164 201 255
163 200 255
163 200 255
163 200 255
162 200 255
156 193 250
82 112 180
37 62 138
16 40 120
15 39 119
15 38 112
15 39 117
15 38 116
14 37 106
29 53 119
84 114 184
150 187 244
162 200 255
163 200 255
163 200 255
163 200 255
164 201 255
164 201 255
165 201 255
165 201 255
166 202 255
166 202 255
167 202 255
167 203 255
168 203 255
162 194 245
128 149 210
103 114 172
98 102 129
89 88 96
87 86 100
79 78 114
76 75 118
90 87 100
92 89 93
83 80 112
82 79 112
73 71 125
83 82 133
113 119 155
118 128 175
153 177 235
175 207 255
175 207 255
165 201 255
159 197 255
154 194 255
151 193 255
147 191 255
145 189 255
142 187 255
140 186 255
138 185 255
136 184 255
134 183 255
133 182 255
132 181 255
131 181 255
132 181 255
133 182 255
136 184 255
142 187 255
151 193 255
163 200 255
169 203 255
168 203 255
168 203 255
167 203 255
167 202 255
166 202 255
166 202 255
166 202 255
165 201 255
162 198 252
94 124 190
24 48 125
15 38 113
15 37 107
15 38 117
15 38 107
15 38 110
15 38 110
15 38 107
15 37 107
15 37 102
15 37 105
25 50 124
98 129 194
165 201 255
165 201 255
165 201 255
166 202 255
166 202 255
167 202 255
167 203 255
168 203 255
168 203 255
169 203 255
147 172 221
94 102 159
76 75 118
81 81 106
75 75 116
88 88 92
86 86 98
99 98 75
97 96 81
84 84 102
90 88 98
93 91 92
94 91 92
94 91 92
94 90 95
87 84 105
98 94 90
77 73 123
87 83 104
91 88 131
116 126 187
157 196 255
154 195 255
151 193 255
148 191 255
146 190 255
143 188 255
141 187 255
139 185 255
137 184 255
135 183 255
133 182 255
132 181 255
130 180 255
129 180 255
128 179 255
128 179 255
128 179 255
130 180 255
132 181 255
137 185 255
149 192 255
163 200 255
170 204 255
169 204 255
169 204 255
169 203 255
168 203 255
168 203 255
151 185 241
51 78 154
15 38 108
15 38 111
15 38 106
15 37 107
15 38 113
15 38 108
15 38 111
14 37 106
15 38 113
14 37 99
15 37 106
15 38 108
15 38 107
15 37 110
64 91 158
160 194 249
168 203 255
168 203 255
169 203 255
169 204 255
169 204 255
170 204 255
138 160 215
87 92 155
92 90 92
82 82 104
96 96 77
101 101 69
101 101 69
96 97 75
100 99 75
104 103 67
99 98 77
97 96 79
105 103 69
98 96 81
103 100 75
104 100 77
102 98 79
106 100 79
91 86 103
89 85 104
96 91 92
84 79 111
92 87 103
156 196 255
154 194 255
151 193 255
149 192 255
147 190 255
145 189 255
143 188 255
141 187 255
139 185 255
137 184 255
135 183 255
133 182 255
132 182 255
130 180 255
129 180 255
128 179 255
128 179 255
128 179 255
129 180 255
131 181 255
134 183 255
141 187 255
159 198 255
171 205 255
171 205 255
171 205 255
170 204 255
162 195 247
55 81 144
15 37 103
15 37 103
15 38 103
15 38 104
15 37 106
15 38 104
15 38 95
15 37 102
15 38 106
15 37 103
14 37 93
15 37 107
15 37 102
14 37 99
14 36 100
15 37 101
38 62 135
162 196 248
170 204 255
171 205 255
171 205 255
165 195 247
101 109 163
97 95 83
96 96 75
103 103 65
99 99 71
103 103 67
97 96 79
111 109 57
106 105 63
106 105 65
107 105 65
110 108 61
109 106 65
105 101 75
109 106 65
111 107 65
107 104 69
102 97 83
108 103 70
101 95 89
105 99 81
99 93 89
92 86 101
93 87 99
158 197 255
156 196 255
154 194 255
152 193 255
150 192 255
148 191 255
146 190 255
144 189 255
143 188 255
116 155 255
67 90 255
66 90 255
53 73 255
31 43 255
42 58 255
44 61 255
69 95 255
102 141 255
129 179 255
131 181 255
133 182 255
136 184 255
141 187 255
155 195 255
172 206 255
173 206 255
173 206 255
59 85 152
14 37 107
14 37 101
15 37 102
14 36 89
14 36 94
14 37 95
14 36 88
14 37 94
15 37 107
15 38 101
15 37 95
14 36 98
15 37 97
15 37 95
14 36 88
14 36 88
14 36 100
14 36 95
50 73 122
173 206 255
173 206 255
159 188 241
95 93 109
88 85 102
103 102 62
101 100 66
106 105 60
106 106 61
106 105 58
105 104 60
109 107 61
113 110 57
112 110 57
113 110 56
113 109 59
107 104 69
110 106 67
111 106 66
108 104 68
117 112 55
106 100 78
107 101 71
109 102 74
111 104 68
107 100 75
108 100 77
103 95 84
161 199 255
159 198 255
158 197 255
156 196 255
154 195 255
152 194 255
142 181 255
80 103 255
16 20 255
2 3 255
4 5 255
8 11 255
5 7 255
5 7 255
8 11 255
11 14 255
4 5 255
5 7 255
10 14 255
59 80 255
125 169 255
138 185 255
140 186 255
145 189 255
157 196 255
173 206 255
119 147 197
14 36 97
15 37 99
15 38 99
15 37 97
14 36 90
14 37 93
14 36 85
14 37 93
15 38 104
15 37 95
15 37 94
14 36 89
14 36 93
15 37 101
15 38 102
15 38 96
15 37 91
14 36 89
14 35 98
14 34 86
125 154 207
160 185 227
94 92 115
89 86 79
95 94 66
88 88 59
100 98 53
101 100 58
109 106 60
110 105 64
112 108 58
116 113 51
112 107 62
120 115 53
113 110 52
118 113 54
123 115 52
121 115 52
125 117 49
115 108 64
111 105 66
111 105 62
111 104 67
113 105 72
107 100 73
107 99 78
99 91 93
110 102 69
165 201 255
163 200 255
162 199 255
161 199 255
159 198 255
116 145 255
21 27 255
4 5 255
4 5 255
10 13 255
9 11 255
10 13 255
3 3 255
5 6 250
16 20 227
23 30 217
7 10 245
8 11 255
1 1 255
11 15 255
7 9 255
98 129 255
144 189 255
147 190 255
152 193 255
163 199 254
27 50 113
15 37 102
14 35 92
15 37 92
14 36 78
14 36 87
14 37 94
15 37 90
14 36 87
14 37 90
15 37 90
14 36 87
15 37 90
14 35 75
14 36 90
15 37 90
15 36 92
14 37 88
14 37 89
14 36 90
15 36 83
38 60 109
83 84 143
77 75 80
84 84 62
76 77 60
91 90 52
94 94 49
101 98 50
105 103 46
111 108 53
115 112 51
116 111 52
120 115 48
121 115 52
123 117 50
122 114 55
124 117 49
122 115 47
122 114 51
119 112 60
121 113 55
115 107 55
122 112 57
118 108 62
116 109 57
105 97 80
113 104 69
112 104 67
170 204 255
169 203 255
167 202 255
166 202 255
108 132 255
14 18 255
3 4 255
4 5 255
11 13 255
3 3 255
15 19 243
66 81 174
135 156 199
170 197 194
181 207 209
181 207 215
167 195 168
150 174 181
75 91 176
21 27 225
4 5 255
2 3 255
52 70 234
85 117 193
108 142 212
118 152 211
14 35 89
14 35 83
14 35 81
15 36 89
14 36 81
15 37 92
15 37 90
14 36 81
14 36 92
15 36 87
14 36 92
14 35 76
14 36 85
14 35 83
14 36 95
14 35 84
14 36 83
14 36 87
14 36 87
14 36 91
14 34 79
14 34 84
53 58 83
61 62 63
48 51 55
69 70 42
73 74 39
84 83 45
100 97 47
106 101 47
112 107 49
112 106 48
121 113 46
120 113 49
123 115 47
126 116 46
119 111 47
123 115 46
124 116 45
122 113 50
125 115 48
123 114 50
118 109 55
119 110 57
119 111 58
113 104 64
111 103 66
115 106 63
112 103 64
175 207 255
174 206 255
173 206 255
142 170 255
6 8 255
15 18 255
5 6 255
5 6 255
5 6 255
32 39 227
166 190 209
194 218 253
185 210 243
187 213 245
190 216 250
190 216 253
185 210 245
188 214 250
189 215 248
171 196 207
70 81 234
0 2 247
0 1 249
9 24 152
12 33 115
23 46 111
14 36 95
15 37 87
14 35 83
14 35 78
14 35 81
14 36 81
14 35 74
14 35 84
14 35 84
14 35 80
14 35 71
14 35 78
14 35 87
14 36 83
14 36 72
14 36 82
14 36 81
14 35 83
14 35 70
14 35 70
13 33 65
14 35 83
30 40 59
40 42 44
36 39 31
40 44 26
56 58 34
81 80 36
87 84 37
92 89 41
108 103 44
118 110 46
119 111 46
115 108 38
121 113 43
128 117 45
121 113 41
118 111 43
125 114 42
127 115 48
125 115 47
123 112 49
118 108 43
125 114 46
123 112 49
121 110 58
112 102 60
114 105 65
119 109 57
180 210 255
179 210 255
179 210 255
55 64 255
14 16 255
5 6 255
5 6 255
8 10 255
21 24 250
178 201 238
190 215 248
186 212 240
186 212 243
185 211 243
186 212 248
183 209 240
186 212 248
184 211 248
187 213 245
187 213 244
185 210 239
46 53 239
0 0 252
2 6 226
9 25 104
13 33 87
14 36 88
14 36 83
14 35 72
14 36 81
14 36 84
14 36 76
14 35 80
14 36 75
14 35 75
14 36 85
15 37 88
14 36 83
14 36 78
14 35 74
14 36 94
14 35 80
15 36 91
14 35 81
14 35 79
14 35 79
13 33 72
14 34 77
14 29 69
16 20 20
24 29 19
35 38 27
43 46 29
63 63 29
73 72 31
90 86 34
97 92 35
114 106 37
113 105 38
114 107 36
125 115 40
124 114 41
126 115 40
126 116 41
121 111 36
121 112 44
121 111 40
117 108 42
123 112 48
118 108 50
120 109 45
121 110 47
119 108 44
116 105 50
110 100 60
186 214 255
185 213 255
176 203 255
18 21 255
9 10 255
7 8 255
1 2 255
10 12 255
118 134 250
190 216 248
191 217 253
186 212 248
187 213 250
183 209 247
189 215 253
187 213 245
188 214 245
187 213 243
188 214 245
184 210 238
182 207 239
136 155 243
0 0 254
0 1 249
8 22 129
15 37 95
13 34 76
14 35 79
14 36 84
14 36 83
13 34 75
14 35 69
15 36 84
14 35 71
14 35 76
14 35 75
14 36 80
14 36 90
14 36 84
14 35 78
14 36 79
14 36 84
13 34 66
13 34 70
14 35 77
13 34 70
14 34 76
13 33 72
12 30 61
5 8 20
15 19 18
22 26 17
33 37 17
62 62 27
70 68 24
92 86 31
102 96 34
110 100 35
111 102 31
107 99 28
118 109 36
120 110 35
123 112 35
119 109 34
120 111 37
122 111 33
124 112 39
120 111 35
118 107 38
120 109 40
115 105 43
115 106 57
117 107 45
110 100 57
108 100 52
192 217 255
192 217 255
176 200 255
7 8 255
5 6 255
3 4 255
5 6 255
3 4 255
120 137 255
192 217 255
191 217 255
181 206 247
188 213 252
186 212 252
182 207 243
188 213 250
191 217 253
192 217 255
191 216 253
185 211 249
186 212 250
158 180 250
0 1 252
0 0 250
6 15 146
13 32 75
14 35 76
14 35 74
14 36 80
14 35 80
14 36 78
15 37 84
13 34 67
14 35 67
13 34 66
14 34 71
14 35 71
14 35 78
14 34 65
14 35 66
14 35 69
14 34 65
13 34 69
14 35 75
14 34 69
13 34 63
13 33 70
14 34 78
12 30 59
4 8 9
10 13 17
24 28 23
29 32 12
52 52 20
66 65 20
93 87 24
87 82 26
98 92 26
96 90 22
110 102 29
111 102 25
125 114 36
118 109 35
116 106 25
115 104 31
119 107 30
119 109 32
112 102 31
114 105 36
118 107 36
113 104 29
119 107 37
110 101 40
108 98 44
111 101 41
167 195 158
162 191 145
152 179 143
12 14 245
6 9 240
2 3 250
5 5 253
4 6 245
101 115 253
186 213 243
190 216 255
188 214 252
189 215 245
181 207 238
185 211 243
189 215 248
188 214 240
188 214 245
186 212 238
186 212 250
184 211 249
122 141 247
0 1 250
0 1 248
7 18 121
13 34 61
15 36 76
13 33 67
14 35 80
14 35 78
14 35 71
14 35 75
14 34 69
14 35 69
13 34 71
14 34 66
14 35 74
14 36 74
13 33 66
14 34 67
13 33 63
13 33 67
14 34 69
14 34 75
13 34 65
13 34 72
13 32 61
13 32 63
12 30 65
4 6 25
8 11 7
19 23 10
36 38 11
60 59 16
54 55 11
88 84 21
89 84 21
97 90 22
100 93 22
110 101 23
107 99 23
110 101 24
107 99 24
116 106 27
112 102 26
113 103 23
108 99 25
116 107 25
112 102 27
111 101 37
108 99 42
111 102 28
113 103 43
111 101 43
103 96 39
117 152 0
120 154 0
117 152 0
37 47 176
2 3 250
1 1 253
4 6 245
9 12 235
16 20 248
169 195 248
183 210 240
187 214 248
185 212 240
189 215 250
187 213 240
190 216 253
190 216 250
189 215 250
184 209 238
184 211 245
171 198 240
26 30 248
0 1 245
1 4 214
5 14 86
12 29 57
13 34 72
13 33 63
14 35 75
14 35 75
14 35 67
14 35 71
13 34 71
13 33 62
14 34 71
14 34 67
14 34 66
14 36 72
14 36 70
13 33 56
13 34 61
13 33 61
14 35 67
14 34 72
14 35 75
13 33 55
13 33 61
13 32 51
10 23 55
8 10 15
11 14 14
18 21 15
31 34 14
52 52 8
59 57 9
65 63 9
75 71 13
88 83 15
102 95 17
93 87 14
107 98 17
111 102 20
105 97 17
106 98 19
111 101 23
110 102 24
110 102 24
105 97 25
111 101 23
106 98 28
107 97 41
106 97 38
104 94 47
99 90 53
107 97 44
120 154 0
117 151 0
117 151 0
94 121 53
10 13 230
7 9 240
5 6 245
4 6 245
8 10 238
34 40 243
159 185 240
183 211 245
185 212 245
189 215 253
186 213 245
186 212 243
189 215 248
183 210 245
178 205 240
179 207 253
54 63 243
0 1 243
0 1 249
6 16 104
7 18 54
11 27 45
13 33 52
13 33 57
14 35 69
13 33 57
13 33 61
14 36 78
13 33 51
14 36 75
14 34 66
13 33 52
13 33 66
13 34 58
13 34 60
13 33 61
13 32 63
13 33 55
13 33 61
12 31 50
13 32 52
12 31 45
13 32 65
13 32 60
16 24 30
9 11 35
12 14 19
20 21 13
40 40 8
51 49 7
50 49 8
56 55 4
81 76 7
83 77 11
87 82 11
88 83 9
97 91 10
93 86 12
99 92 16
108 99 19
95 88 23
101 94 17
100 93 18
99 93 25
104 95 29
109 98 21
98 91 27
109 99 30
100 92 36
94 87 49
94 87 45
119 152 0
117 151 0
113 147 0
114 147 0
72 93 89
2 3 250
6 9 240
3 4 248
7 9 240
5 7 243
18 21 248
80 93 253
147 171 248
175 205 232
183 211 253
179 207 243
181 209 240
149 174 250
111 130 248
21 24 255
5 6 232
0 0 247
15 21 134
23 35 17
39 55 7
64 88 20
13 32 37
13 32 51
13 33 63
13 33 60
13 32 55
13 32 55
13 33 56
14 35 65
13 33 52
13 32 55
12 32 58
12 31 53
13 32 57
13 33 65
14 34 61
13 34 61
13 33 60
13 32 60
13 33 68
12 30 48
12 29 46
12 30 51
28 32 50
26 25 31
34 32 16
25 26 12
35 36 5
41 42 10
51 49 6
63 59 3
75 71 5
77 71 12
84 80 7
86 80 7
90 84 10
90 85 10
92 87 6
98 90 10
90 83 16
93 86 16
99 92 21
99 92 13
96 89 24
97 90 27
103 96 11
99 91 38
99 91 27
90 84 37
96 88 53
118 153 0
116 150 0
108 140 0
109 142 0
116 150 0
87 113 61
16 21 220
2 3 248
6 9 240
2 3 248
3 4 248
1 1 253
6 8 235
12 15 238
19 23 248
29 36 245
11 14 253
3 4 240
1 2 248
4 4 243
5 6 238
27 35 104
46 61 0
59 78 0
77 101 0
90 119 0
25 45 43
11 29 47
13 33 62
13 33 53
13 33 58
12 31 47
13 34 55
13 33 51
13 34 57
13 33 49
13 33 63
13 33 48
14 35 72
13 34 60
13 32 56
12 30 53
12 31 56
13 34 64
13 33 61
12 30 51
13 31 47
17 34 39
61 64 55
34 32 49
39 37 17
40 38 20
32 31 11
41 40 8
57 53 9
52 49 9
69 65 7
75 71 5
78 72 13
85 80 6
81 78 7
82 77 11
84 79 4
79 76 13
87 80 9
88 82 14
87 81 14
93 85 12
81 77 33
94 86 26
87 81 19
93 87 15
92 84 33
86 78 48
85 79 53
112 146 0
110 142 0
112 144 0
104 137 0
105 137 0
112 145 0
99 129 10
57 75 99
23 30 197
7 9 240
4 6 245
4 6 240
2 3 245
9 12 232
3 4 245
1 1 253
2 3 248
1 2 248
10 13 222
36 48 133
55 74 15
56 75 0
49 66 0
57 75 0
84 108 0
105 135 0
77 104 14
11 28 33
12 30 40
13 32 48
13 32 46
13 32 52
13 32 48
12 31 44
13 32 52
12 31 46
13 32 55
13 34 62
13 33 53
13 32 55
12 31 47
12 31 47
12 31 47
12 30 40
12 30 45
11 27 42
10 26 40
70 90 12
87 105 15
53 50 54
40 37 44
39 36 36
35 33 23
36 33 28
51 47 13
57 53 8
55 51 6
63 57 10
75 70 9
67 63 10
74 69 6
79 73 8
72 68 8
85 79 7
88 80 19
87 80 16
82 74 14
82 78 11
86 80 27
91 84 21
87 79 37
94 86 30
86 80 36
92 84 36
88 80 36
112 145 0
114 146 0
109 142 0
104 134 0
108 140 0
108 139 0
108 139 0
109 141 0
98 127 0
80 104 58
56 73 107
39 52 151
37 47 156
32 41 176
28 36 171
33 43 156
41 54 115
65 84 69
83 108 2
65 87 0
72 94 0
56 75 0
62 81 0
78 101 0
90 116 0
90 116 0
90 117 0
38 59 20
12 30 39
12 30 38
12 30 38
13 32 44
11 29 33
13 33 46
13 33 46
11 29 44
12 30 38
12 31 43
13 32 48
13 32 44
12 31 43
12 31 38
12 32 53
12 31 50
11 29 40
11 28 40
31 46 18
85 103 0
86 102 0
83 97 10
40 37 73
32 30 61
36 34 43
39 35 25
48 43 28
45 41 18
53 48 10
56 53 10
65 60 2
64 58 8
78 71 8
69 63 8
78 71 9
77 70 16
79 72 18
79 73 18
76 71 19
87 79 26
87 79 9
82 76 23
92 84 24
76 70 45
75 70 45
82 74 51
83 77 44
115 147 0
110 141 0
112 144 0
112 143 0
102 132 0
107 138 0
104 135 0
101 131 0
103 132 0
99 128 0
96 125 0
95 124 0
91 118 0
89 114 0
88 113 0
83 107 0
88 113 0
81 105 0
74 96 0
67 87 0
61 80 0
73 92 0
67 85 0
100 125 0
82 106 0
84 109 0
86 109 0
70 92 1
21 38 34
11 30 42
11 28 31
12 30 46
11 29 39
12 30 39
12 30 48
13 32 52
12 30 39
12 30 34
11 29 46
12 30 44
12 30 42
11 27 37
11 29 37
12 31 44
10 26 26
20 34 30
71 87 1
69 80 0
70 83 0
72 82 0
59 65 15
45 44 67
35 29 72
40 33 35
40 36 40
49 42 33
46 41 17
60 54 35
59 53 15
63 55 17
68 61 13
69 62 17
75 67 15
71 64 21
70 63 19
74 68 32
74 67 32
76 70 21
72 64 43
71 65 38
86 78 26
80 74 39
70 65 66
80 74 45
73 66 63
108 139 0
109 140 0
115 145 0
106 135 0
106 137 0
109 139 0
100 127 0
94 122 0
100 128 0
90 117 0
98 127 0
90 115 0
103 131 0
84 107 0
90 115 0
90 113 0
82 105 0
78 99 0
75 96 0
73 92 0
64 81 0
61 80 0
68 88 0
70 90 0
64 85 0
71 93 0
70 91 0
67 88 0
63 82 0
17 31 14
10 28 24
11 28 35
11 27 42
12 30 37
12 30 52
12 29 39
11 28 39
11 28 42
11 30 37
11 28 35
10 27 30
12 30 43
10 26 29
10 27 29
22 37 17
51 63 0
62 75 0
57 70 0
64 74 0
68 76 0
53 57 0
55 58 0
44 40 33
32 27 61
30 25 76
43 36 48
41 35 51
54 46 30
53 43 30
52 47 51
61 53 15
60 53 25
66 59 28
58 53 40
59 51 39
69 61 31
72 65 24
71 63 29
72 66 40
74 65 41
76 67 48
69 62 50
71 64 60
69 63 79
68 62 78
112 143 0
107 136 0
106 134 0
107 135 0
98 125 0
99 125 0
98 125 0
102 130 0
94 119 0
94 120 0
90 113 0
96 121 0
94 120 0
79 101 0
77 99 0
80 101 0
73 92 0
61 78 0
53 70 0
57 75 0
67 86 0
61 79 0
69 90 0
73 91 0
67 87 0
72 91 0
67 86 0
50 67 0
51 67 0
52 69 0
24 36 5
12 28 23
10 26 20
9 24 17
11 28 34
10 27 26
11 27 25
11 27 28
11 29 34
10 26 35
11 27 30
9 24 33
10 26 29
26 40 7
40 51 0
42 50 0
42 51 0
63 73 0
64 77 0
46 56 0
50 56 0
50 53 0
39 40 0
45 44 0
34 28 33
18 14 81
33 27 71
39 30 69
50 41 53
47 40 46
53 45 38
54 48 33
66 58 20
60 52 47
54 47 43
56 49 48
65 57 47
63 56 51
65 56 44
66 59 50
59 52 73
61 53 77
67 60 85
66 67 75
79 92 68
109 140 0
112 144 0
109 140 0
109 138 0
104 132 0
96 120 0
101 126 0
96 121 0
96 122 0
102 128 0
90 112 0
89 112 0
84 107 0
80 101 0
75 95 0
71 90 0
56 71 0
47 60 0
68 86 0
67 86 0
61 79 0
62 81 0
63 81 0
70 91 0
67 86 0
46 61 0
60 80 0
77 99 0
41 56 0
47 62 0
51 67 0
30 41 1
17 29 11
11 24 21
9 23 19
9 24 23
9 24 17
9 24 17
11 27 28
9 23 24
8 19 15
17 28 8
34 43 2
37 46 0
35 46 0
53 65 0
50 61 0
53 65 0
66 80 0
59 72 0
64 75 0
55 60 0
53 56 0
46 50 0
54 54 0
33 32 0
34 30 20
27 23 48
31 25 48
35 27 69
34 25 79
40 30 66
49 40 66
51 42 61
48 41 66
49 42 53
60 52 54
57 50 68
56 49 77
47 41 105
65 63 72
73 78 68
94 112 28
113 138 2
111 139 0
112 143 0
116 146 0
104 132 0
111 141 0
102 128 0
100 127 0
95 118 0
85 107 0
91 115 0
91 113 0
81 103 0
75 94 0
69 88 0
68 86 0
74 93 0
64 83 0
74 95 0
60 78 0
69 88 0
71 90 0
68 89 0
58 77 0
67 86 0
69 90 0
69 89 0
63 84 0
75 96 0
55 72 0
58 77 0
53 70 0
39 53 0
40 53 0
29 40 0
25 34 0
25 35 2
25 35 1
13 23 3
10 17 1
13 19 1
22 31 5
34 43 0
39 48 0
36 48 0
52 64 0
33 44 0
48 59 0
41 51 0
57 70 0
59 71 0
60 73 0
62 73 0
56 65 0
56 64 0
58 66 0
53 59 0
47 48 0
47 46 0
59 55 0
47 48 0
42 39 0
48 43 0
57 54 2
53 47 33
62 60 25
52 49 40
64 61 43
73 75 20
81 84 12
94 101 7
96 110 0
103 120 0
100 116 0
106 126 0
107 130 0
111 135 0
105 133 0
109 137 0
108 135 0
102 128 0
94 117 0
100 125 0
98 121 0
94 118 0
91 114 0
88 110 0
85 107 0
84 105 0
78 99 0
82 105 0
80 102 0
76 99 0
75 96 0
69 88 0
78 100 0
60 80 0
80 101 0
77 98 0
63 84 0
83 108 0
64 86 0
57 78 0
52 71 0
55 74 0
56 73 0
51 69 0
43 59 0
40 56 0
40 55 0
28 39 0
32 44 0
34 46 0
43 56 0
22 32 0
28 37 0
29 39 0
33 43 0
33 44 0
46 60 0
41 54 0
38 49 0
54 70 0
46 57 0
55 69 0
65 79 0
55 66 0
61 75 0
64 79 0
54 63 0
68 78 0
53 60 0
85 94 0
60 68 0
50 56 0
58 62 0
56 58 0
61 63 0
70 74 0
67 64 0
58 54 0
75 77 0
68 69 0
72 68 0
84 88 0
89 93 0
92 101 0
89 98 0
95 107 0
102 120 0
105 123 0
102 118 0
98 123 0
103 130 0
91 115 0
92 115 0
94 118 0
101 126 0
94 118 0
88 109 0
81 102 0
91 115 0
83 106 0
85 107 0
88 112 0
83 105 0
81 102 0
85 108 0
74 96 0
88 114 0
75 98 0
73 96 0
69 91 0
66 88 0
81 106 0
73 96 0
69 90 0
58 78 0
65 86 0
66 86 0
50 68 0
59 78 0
53 70 0
55 73 0
49 66 0
45 62 0
39 55 0
48 64 0
44 58 0
46 60 0
39 52 0
34 46 0
47 62 0
43 56 0
40 51 0
53 68 0
52 66 0
61 77 0
51 66 0
55 72 0
60 75 0
58 72 0
60 76 0
61 77 0
71 87 0
63 79 0
74 86 0
71 83 0
73 84 0
65 74 0
61 66 0
59 67 0
62 64 0
69 76 0
75 80 0
71 77 0
72 76 0
79 78 0
75 80 0
85 92 0
86 91 0
88 92 0
88 94 0
90 100 0
91 104 0
102 117 0
95 107 0
109 136 0
102 129 0
98 123 0
97 123 0
96 120 0
90 113 0
93 117 0
86 109 0
81 102 0
94 118 0
87 112 0
83 106 0
91 115 0
92 117 0
96 123 0
83 108 0
84 109 0
68 90 0
84 109 0
69 91 0
68 89 0
81 106 0
74 99 0
69 92 0
66 87 0
68 90 0
73 96 0
67 90 0
66 88 0
65 86 0
52 70 0
49 65 0
54 73 0
56 73 0
54 73 0
47 64 0
46 61 0
57 73 0
54 72 0
54 72 0
48 65 0
42 57 0
65 84 0
46 62 0
52 68 0
54 70 0
67 86 0
62 80 0
64 84 0
70 88 0
66 81 0
74 93 0
68 85 0
76 95 0
73 92 0
84 100 0
71 86 0
71 83 0
85 103 0
83 94 0
77 89 0
80 94 0
80 91 0
72 78 0
73 83 0
80 83 0
81 87 0
82 89 0
84 92 0
92 98 0
91 101 0
82 88 0
95 110 0
102 112 0
100 114 0
101 128 0
100 126 0
94 119 0
102 128 0
96 121 0
93 119 0
92 116 0
96 121 0
90 113 0
93 116 0
86 111 0
90 114 0
89 113 0
90 114 0
83 107 0
86 112 0
91 117 0
80 105 0
81 108 0
80 104 0
76 101 0
70 92 0
80 106 0
70 93 0
80 106 0
76 101 0
62 84 0
62 84 0
68 90 0
68 91 0
71 95 0
61 80 0
70 93 0
59 80 0
60 79 0
53 71 0
64 85 0
56 75 0
56 75 0
53 71 0
52 69 0
57 73 0
61 81 0
58 77 0
57 76 0
70 91 0
73 92 0
73 94 0
82 102 0
68 86 0
71 91 0
80 102 0
74 95 0
70 88 0
83 105 0
86 103 0
76 92 0
81 100 0
71 87 0
85 100 0
85 99 0
78 90 0
90 104 0
89 104 0
83 93 0
89 102 0
80 89 0
85 94 0
86 97 0
85 93 0
96 110 0
89 100 0
96 107 0
91 102 0
99 111 0
99 125 0
105 132 0
98 124 0
92 116 0
98 124 0
103 131 0
92 117 0
104 131 0
87 111 0
94 122 0
91 117 0
86 112 0
94 121 0
84 110 0
85 110 0
86 112 0
82 108 0
87 114 0
82 107 0
86 114 0
82 108 0
78 102 0
75 100 0
76 100 0
84 111 0
83 108 0
69 92 0
70 93 0
73 96 0
69 91 0
61 82 0
67 90 0
61 82 0
65 87 0
69 91 0
57 77 0
63 84 0
65 87 0
60 82 0
66 88 0
66 86 0
59 79 0
61 79 0
71 91 0
67 85 0
73 94 0
70 93 0
66 87 0
76 97 0
76 97 0
67 85 0
67 85 0
72 91 0
81 98 0
72 92 0
83 106 0
82 103 0
83 104 0
70 86 0
80 96 0
84 104 0
85 100 0
82 95 0
87 103 0
73 86 0
89 104 0
84 96 0
86 98 0
82 96 0
85 94 0
93 108 0
98 113 0
87 99 0
87 99 0
90 101 0
97 122 0
99 126 0
100 127 0
93 119 0
97 123 0
93 119 0
90 116 0
99 127 0
99 128 0
86 111 0
86 111 0
89 115 0
89 114 0
93 120 0
96 124 0
86 113 0
81 109 0
85 111 0
82 108 0
77 102 0
84 109 0
78 103 0
79 104 0
80 105 0
79 106 0
77 102 0
77 102 0
70 94 0
69 92 0
67 91 0
65 87 0
65 87 0
75 99 0
69 93 0
74 97 0
85 109 0
70 92 0
61 80 0
74 98 0
57 77 0
71 95 0
56 75 0
71 92 0
77 100 0
78 101 0
83 107 0
73 98 0
72 93 0
74 98 0
70 89 0
78 99 0
73 96 0
69 90 0
80 101 0
90 112 0
84 104 0
85 105 0
82 102 0
84 104 0
85 103 0
83 103 0
85 104 0
86 105 0
83 104 0
87 104 0
80 95 0
82 98 0
81 94 0
91 106 0
98 114 0
85 100 0
94 110 0
92 106 0
89 106 0
97 114 0
103 131 0
104 133 0
99 126 0
91 116 0
92 120 0
100 128 0
100 129 0
95 122 0
92 119 0
92 118 0
85 111 0
94 121 0
95 123 0
92 120 0
87 114 0
90 117 0
86 113 0
89 116 0
86 115 0
80 106 0
86 114 0
78 104 0
75 100 0
74 100 0
83 108 0
77 103 0
86 113 0
71 95 0
65 89 0
76 101 0
79 105 0
76 99 0
82 107 0
76 100 0
74 97 0
67 88 0
66 87 0
64 86 0
63 84 0
73 97 0
65 86 0
78 102 0
66 88 0
66 88 0
71 93 0
74 97 0
73 93 0
83 107 0
73 95 0
84 107 0
84 107 0
82 100 0
78 99 0
86 107 0
75 97 0
80 99 0
87 112 0
78 98 0
87 107 0
81 102 0
85 103 0
80 97 0
85 103 0
84 105 0
81 99 0
84 101 0
94 112 0
92 107 0
82 96 0
86 101 0
86 101 0
92 106 0
92 106 0
87 97 0
89 106 0
99 127 0
98 127 0
94 120 0
101 130 0
96 125 0
94 121 0
101 131 0
99 127 0
99 130 0
92 119 0
85 110 0
97 126 0
89 118 0
96 127 0
90 118 0
87 113 0
83 110 0
83 110 0
84 111 0
90 117 0
89 117 0
88 115 0
85 112 0
92 120 0
72 98 0
82 109 0
81 107 0
77 102 0
73 98 0
72 96 0
71 95 0
77 103 0
71 94 0
75 99 0
72 96 0
63 84 0
63 85 0
81 105 0
63 85 0
78 103 0
65 86 0
78 101 0
70 91 0
79 103 0
77 98 0
80 107 0
79 103 0
80 105 0
81 106 0
74 97 0
75 97 0
78 100 0
88 112 0
75 97 0
95 120 0
81 104 0
81 103 0
92 118 0
89 113 0
91 112 0
85 106 0
97 120 0
85 108 0
85 104 0
89 111 0
93 113 0
81 97 0
81 100 0
85 102 0
87 104 0
94 111 0
86 101 0
98 116 0
96 111 0
89 102 0
