P3
75 42
255
163 200 255
162 199 255
162 199 255
161 199 255
161 199 255
160 198 255
159 198 255
159 198 255
158 197 255
158 197 255
157 197 255
157 196 255
156 196 255
156 196 255
155 195 255
154 195 255
154 194 255
153 194 255
153 194 255
152 193 255
151 193 255
151 193 255
150 192 255
150 192 255
149 192 255
149 192 255
148 191 255
148 191 255
147 191 255
147 190 255
147 190 255
146 190 255
146 190 255
146 190 255
146 190 255
146 190 255
146 190 255
146 190 255
146 190 255
146 190 255
146 190 255
146 190 255
146 190 255
147 190 255
147 190 255
147 191 255
148 191 255
148 191 255
149 191 255
149 192 255
150 192 255
150 192 255
151 193 255
151 193 255
152 193 255
153 194 255
153 194 255
154 194 255
154 195 255
155 195 255
156 196 255
156 196 255
157 196 255
157 197 255
158 197 255
158 197 255
159 198 255
160 198 255
160 198 255
161 199 255
161 199 255
162 199 255
162 199 255
162 200 255
163 200 255
164 200 255
163 200 255
163 200 255
162 200 255
162 199 255
161 199 255
161 199 255
160 198 255
160 198 255
159 198 255
158 197 255
158 197 255
157 197 255
157 196 255
156 196 255
156 196 255
155 195 255
154 195 255
154 195 255
153 194 255
153 194 255
152 193 255
152 193 255
151 193 255
150 192 255
150 192 255
150 192 255
149 192 255
149 191 255
148 191 255
148 191 255
148 191 255
147 191 255
147 190 255
147 190 255
147 190 255
147 190 255
147 190 255
147 190 255
147 190 255
147 190 255
147 191 255
148 191 255
148 191 255
148 191 255
149 191 255
149 192 255
149 192 255
150 192 255
150 192 255
151 193 255
152 193 255
152 193 255
153 194 255
153 194 255
154 195 255
154 195 255
155 195 255
156 196 255
156 196 255
157 196 255
157 197 255
158 197 255
158 197 255
159 198 255
159 198 255
160 198 255
161 199 255
161 199 255
162 199 255
162 200 255
163 200 255
163 200 255
164 200 255
164 201 255
165 201 255
164 201 255
164 200 255
163 200 255
163 200 255
162 200 255
162 199 255
161 199 255
161 199 255
160 198 255
160 198 255
159 198 255
159 197 255
158 197 255
157 197 255
157 196 255
156 196 255
156 196 255
155 195 255
154 195 255
154 195 255
153 194 255
153 194 255
152 193 255
152 193 255
151 193 255
151 193 255
150 192 255
150 192 255
149 192 255
149 192 255
149 191 255
149 191 255
148 191 255
148 191 255
148 191 255
148 191 255
148 191 255
148 191 255
148 191 255
148 191 255
149 191 255
149 191 255
149 192 255
149 192 255
150 192 255
150 192 255
151 193 255
151 193 255
152 193 255
152 194 255
153 194 255
153 194 255
154 195 255
154 195 255
155 195 255
156 196 255
156 196 255
157 196 255
157 197 255
158 197 255
159 197 255
159 198 255
160 198 255
160 198 255
161 199 255
161 199 255
162 199 255
162 200 255
163 200 255
163 200 255
164 201 255
164 201 255
165 201 255
165 201 255
166 202 255
166 202 255
165 201 255
165 201 255
164 201 255
164 200 255
163 200 255
163 200 255
162 199 255
162 199 255
161 199 255
160 198 255
160 198 255
159 198 255
159 197 255
158 197 255
158 197 255
157 196 255
156 196 255
156 196 255
155 195 255
155 195 255
154 195 255
154 194 255
153 194 255
152 194 255
152 193 255
152 193 255
151 193 255
151 193 255
150 192 255
150 192 255
150 192 255
150 192 255
149 192 255
149 192 255
149 192 255
149 192 255
149 192 255
149 192 255
150 192 255
150 192 255
150 192 255
150 192 255
151 193 255
151 193 255
152 193 255
152 193 255
153 194 255
153 194 255
154 194 255
154 195 255
155 195 255
155 195 255
156 196 255
156 196 255
157 196 255
157 197 255
158 197 255
159 197 255
159 198 255
160 198 255
160 198 255
161 199 255
161 199 255
162 199 255
163 200 255
163 200 255
164 200 255
164 201 255
165 201 255
165 201 255
166 202 255
166 202 255
166 202 255
167 203 255
167 202 255
166 202 255
166 202 255
165 201 255
165 201 255
164 201 255
164 201 255
163 200 255
163 200 255
162 200 255
162 199 255
161 199 255
161 199 255
160 198 255
160 198 255
159 198 255
158 197 255
158 197 255
157 197 255
157 196 255
156 196 255
156 196 255
155 195 255
154 195 255
154 195 255
153 194 255
153 194 255
153 194 255
152 194 255
152 193 255
151 193 255
151 193 255
151 193 255
151 193 255
151 193 255
151 193 255
151 193 255
151 193 255
151 193 255
151 193 255
151 193 255
151 193 255
152 193 255
152 194 255
153 194 255
153 194 255
153 194 255
154 195 255
154 195 255
155 195 255
155 195 255
156 196 255
157 196 255
157 197 255
158 197 255
158 197 255
159 198 255
160 198 255
160 198 255
161 199 255
161 199 255
162 199 255
162 200 255
163 200 255
163 200 255
164 201 255
164 201 255
165 201 255
165 201 255
166 202 255
166 202 255
167 202 255
167 203 255
168 203 255
168 203 255
168 203 255
168 203 255
167 202 255
167 202 255
166 202 255
166 202 255
165 201 255
165 201 255
164 201 255
164 200 255
163 200 255
163 200 255
162 199 255
162 199 255
161 199 255
160 198 255
160 198 255
159 198 255
159 197 255
158 197 255
158 197 255
157 196 255
156 196 255
156 196 255
155 195 255
155 195 255
155 195 255
154 195 255
154 194 255
153 194 255
153 194 255
153 194 255
153 194 255
152 194 255
152 193 255
152 193 255
152 193 255
152 194 255
152 194 255
153 194 255
153 194 255
153 194 255
153 194 255
154 194 255
154 195 255
154 195 255
155 195 255
155 195 255
156 196 255
156 196 255
157 196 255
157 197 255
158 197 255
159 197 255
159 198 255
160 198 255
160 198 255
161 199 255
162 199 255
162 199 255
163 200 255
163 200 255
164 200 255
164 201 255
165 201 255
165 201 255
166 202 255
166 202 255
167 202 255
167 202 255
168 203 255
168 203 255
168 203 255
169 204 255
170 204 255
169 204 255
169 204 255
168 203 255
168 203 255
168 203 255
167 202 255
167 202 255
166 202 255
166 202 255
165 201 255
165 201 255
164 201 255
164 200 255
163 200 255
162 200 255
162 199 255
161 199 255
161 199 255
160 198 255
160 198 255
159 198 255
158 197 255
158 197 255
157 197 255
157 196 255
157 196 255
156 196 255
156 196 255
155 195 255
155 195 255
155 195 255
154 195 255
154 195 255
154 195 255
154 194 255
154 194 255
154 194 255
154 194 255
154 195 255
154 195 255
154 195 255
154 195 255
155 195 255
155 195 255
156 196 255
156 196 255
156 196 255
157 196 255
158 197 255
158 197 255
159 197 255
159 198 255
160 198 255
160 198 255
161 199 255
161 199 255
162 199 255
162 200 255
163 200 255
164 200 255
164 201 255
165 201 255
165 201 255
166 202 255
166 202 255
167 202 255
167 202 255
168 203 255
168 203 255
168 203 255
169 204 255
169 204 255
170 204 255
170 204 255
171 205 255
171 205 255
170 204 255
170 204 255
169 204 255
169 204 255
169 203 255
168 203 255
168 203 255
167 202 255
167 202 255
166 202 255
166 202 255
165 201 255
165 201 255
164 201 255
164 200 255
163 200 255
162 200 255
162 199 255
161 199 255
161 199 255
160 198 255
160 198 255
159 198 255
159 197 255
158 197 255
158 197 255
157 197 255
157 196 255
157 196 255
156 196 255
156 196 255
156 196 255
156 196 255
156 196 255
155 195 255
155 195 255
156 196 255
156 196 255
156 196 255
156 196 255
156 196 255
157 196 255
157 196 255
157 197 255
158 197 255
158 197 255
159 197 255
159 198 255
160 198 255
160 198 255
161 199 255
161 199 255
162 199 255
162 200 255
163 200 255
164 200 255
164 201 255
165 201 255
165 201 255
166 202 255
166 202 255
167 202 255
167 202 255
168 203 255
168 203 255
169 203 255
169 204 255
169 204 255
170 204 255
170 204 255
171 205 255
171 205 255
171 205 255
172 206 255
172 205 255
172 205 255
171 205 255
171 205 255
170 204 255
170 204 255
170 204 255
169 204 255
169 203 255
168 203 255
168 203 255
167 203 255
167 202 255
166 202 255
166 202 255
165 201 255
165 201 255
164 201 255
164 200 255
163 200 255
163 200 255
162 199 255
162 199 255
161 199 255
161 199 255
160 198 255
160 198 255
159 198 255
159 197 255
158 197 255
158 197 255
158 197 255
158 197 255
157 197 255
157 197 255
157 197 255
157 197 255
157 197 255
157 197 255
158 197 255
158 197 255
158 197 255
158 197 255
159 197 255
159 198 255
160 198 255
160 198 255
160 198 255
161 199 255
161 199 255
162 199 255
162 200 255
163 200 255
163 200 255
164 201 255
165 201 255
165 201 255
166 202 255
166 202 255
167 202 255
167 203 255
168 203 255
168 203 255
169 203 255
169 204 255
170 204 255
170 204 255
170 204 255
171 205 255
171 205 255
172 205 255
172 205 255
172 206 255
173 206 255
174 206 255
173 206 255
173 206 255
173 206 255
172 206 255
171 205 255
169 204 255
168 203 255
167 202 255
166 202 255
167 202 255
166 202 255
168 203 255
168 203 255
168 203 255
167 203 255
167 202 255
166 202 255
166 202 255
165 201 255
165 201 255
164 201 255
164 200 255
163 200 255
163 200 255
162 200 255
162 199 255
162 199 255
161 199 255
161 199 255
160 198 255
160 198 255
160 198 255
159 198 255
149 187 247
125 160 223
110 143 209
103 135 204
121 156 221
143 180 240
160 198 255
160 198 255
160 198 255
160 198 255
161 199 255
161 199 255
161 199 255
162 199 255
162 200 255
163 200 255
163 200 255
164 201 255
164 201 255
165 201 255
165 201 255
166 202 255
166 202 255
167 202 255
167 203 255
168 203 255
167 201 255
156 186 237
141 167 233
139 161 212
132 154 217
131 152 219
140 164 233
156 184 235
158 185 237
172 206 255
173 206 255
173 206 255
173 206 255
174 206 255
174 207 255
175 207 255
173 206 255
168 203 255
163 200 255
158 197 255
153 194 255
150 192 255
147 190 255
144 189 255
142 188 255
142 187 255
142 187 255
143 188 255
144 188 255
148 191 255
157 197 255
160 198 255
167 203 255
168 203 255
167 203 255
167 202 255
166 202 255
166 202 255
165 201 255
165 201 255
164 201 255
164 200 255
163 200 255
163 200 255
163 200 255
162 200 255
155 191 249
91 121 186
49 75 143
15 38 120
14 37 111
15 38 113
15 38 116
15 38 117
15 38 108
43 69 143
85 115 183
149 185 244
162 200 255
163 200 255
163 200 255
163 200 255
164 201 255
164 201 255
165 201 255
165 201 255
166 202 255
166 202 255
167 202 255
167 203 255
168 203 255
161 193 247
130 150 200
103 112 159
83 86 143
91 91 100
76 75 118
89 88 96
90 88 96
82 80 110
86 83 106
79 77 118
79 77 118
87 83 108
83 82 129
108 117 174
115 126 190
148 172 224
175 206 253
175 207 255
165 201 255
159 198 255
154 195 255
151 193 255
147 191 255
145 189 255
142 188 255
140 186 255
138 185 255
136 184 255
134 183 255
133 182 255
132 181 255
131 181 255
132 181 255
133 182 255
135 183 255
141 187 255
152 193 255
163 200 255
169 203 255
168 203 255
168 203 255
167 203 255
167 202 255
166 202 255
166 202 255
166 202 255
165 201 255
163 199 254
88 117 176
19 43 116
15 37 106
14 37 102
15 38 110
15 38 117
15 38 112
15 37 103
15 38 111
15 37 102
15 38 112
15 37 107
25 50 125
95 125 190
159 195 250
165 201 255
166 202 255
166 202 255
166 202 255
167 202 255
167 203 255
168 203 255
168 203 255
166 199 251
134 154 204
94 100 151
72 71 126
83 82 104
80 80 108
85 85 98
91 91 88
99 99 73
96 96 79
92 91 88
101 99 75
97 96 81
93 91 92
88 85 104
99 95 85
89 85 104
83 80 112
92 85 107
94 89 98
86 86 146
123 134 181
157 197 255
154 195 255
151 193 255
148 191 255
146 190 255
143 188 255
141 187 255
139 185 255
137 184 255
135 183 255
133 182 255
131 181 255
130 180 255
129 180 255
128 179 255
128 179 255
128 179 255
130 180 255
133 182 255
137 184 255
150 192 255
164 201 255
170 204 255
169 204 255
169 204 255
169 203 255
168 203 255
168 203 255
161 196 250
59 85 154
15 38 108
15 38 113
15 38 104
15 38 108
15 37 101
15 37 99
15 37 99
15 37 102
15 37 93
15 37 103
15 37 103
15 37 102
15 38 108
15 37 106
52 78 152
155 189 242
168 203 255
168 203 255
169 203 255
169 204 255
169 204 255
170 204 255
143 165 208
90 95 145
81 80 108
87 86 98
95 94 83
99 99 73
103 102 69
95 96 77
90 90 90
96 97 77
105 104 65
107 105 67
97 96 81
102 99 77
96 94 86
101 98 81
111 106 67
108 103 73
97 92 91
91 88 97
95 89 98
90 85 105
83 78 114
157 196 255
154 195 255
152 193 255
149 192 255
147 190 255
145 189 255
143 188 255
141 187 255
139 185 255
137 184 255
135 183 255
133 182 255
132 181 255
131 181 255
129 180 255
129 179 255
128 179 255
128 179 255
129 180 255
131 181 255
135 183 255
141 187 255
157 196 255
171 205 255
171 205 255
171 205 255
170 204 255
164 198 250
48 73 140
15 38 107
15 38 108
15 38 108
15 38 107
15 38 101
15 38 104
15 37 95
14 37 101
14 35 87
15 37 103
14 37 98
14 37 101
15 37 98
14 36 99
15 38 98
14 36 92
47 71 136
165 199 252
170 204 255
171 205 255
171 205 255
165 197 251
104 112 157
91 90 92
90 89 92
93 93 83
101 101 69
97 97 77
101 101 69
100 99 73
107 106 63
107 106 63
106 104 65
109 107 61
108 105 67
109 107 63
110 106 65
113 108 63
102 98 78
96 92 88
101 97 80
103 97 81
104 98 75
107 100 80
99 93 89
98 92 88
158 197 255
156 196 255
154 195 255
152 193 255
150 192 255
148 191 255
146 190 255
144 189 255
142 188 255
113 151 255
85 115 255
51 70 255
45 62 255
30 41 255
38 52 255
48 67 255
69 95 255
106 146 255
128 177 255
132 181 255
133 182 255
136 184 255
141 187 255
154 195 255
171 205 255
173 206 255
173 206 255
69 95 157
15 38 112
14 37 92
15 38 104
14 36 93
15 37 99
15 38 99
14 36 92
15 37 95
14 37 95
15 37 95
15 37 95
15 37 92
14 36 93
15 37 97
14 36 94
14 36 92
15 37 97
15 37 104
61 86 140
173 206 255
173 206 255
161 189 235
93 94 122
95 93 85
96 95 79
100 100 71
100 99 64
105 105 58
106 106 61
108 107 61
111 109 57
110 108 59
111 109 56
112 109 61
113 109 58
112 108 60
115 110 61
114 109 62
108 103 70
119 113 52
119 112 58
107 102 74
112 106 65
111 105 67
110 102 75
109 101 73
96 90 92
161 199 255
159 198 255
158 197 255
155 195 255
154 195 255
153 194 255
144 185 255
95 122 255
18 24 255
2 3 255
2 3 255
7 9 255
2 3 255
4 5 255
1 1 255
5 7 255
8 11 255
5 7 255
24 32 255
66 89 255
125 169 255
138 185 255
140 186 255
145 189 255
158 197 255
173 206 255
117 146 200
15 37 99
14 36 98
15 37 88
15 37 106
15 38 97
15 37 97
15 38 101
14 37 99
15 37 89
14 36 87
14 36 84
14 36 87
14 37 93
14 37 88
14 36 90
14 35 85
14 36 95
15 37 102
15 37 100
14 35 95
110 137 190
165 191 227
91 88 117
84 82 101
91 91 72
87 87 71
93 93 73
98 97 63
106 104 60
109 107 53
112 109 54
116 111 55
113 110 54
118 113 54
115 110 60
117 111 58
121 115 52
119 113 54
122 116 49
117 110 59
120 113 55
120 113 54
116 108 63
120 112 59
113 105 64
112 106 61
109 101 67
99 92 82
165 201 255
163 200 255
162 199 255
161 199 255
159 198 255
115 143 255
18 23 255
3 3 255
4 5 255
6 7 255
3 3 255
6 7 255
7 9 255
9 12 248
22 29 220
20 25 220
4 5 250
7 9 255
10 13 255
4 5 255
11 15 255
94 124 255
145 189 255
147 190 255
152 193 255
163 199 254
37 60 126
14 36 92
14 36 92
14 36 88
14 36 92
15 37 92
14 35 79
14 36 83
15 37 92
15 37 93
14 35 81
15 37 93
14 36 90
14 36 85
14 36 85
14 36 92
14 36 87
14 35 84
14 36 87
14 36 89
14 35 95
37 59 114
98 99 137
78 75 76
76 77 60
85 85 66
90 89 54
88 88 51
97 95 49
114 110 49
112 108 56
116 112 51
122 115 48
122 115 48
121 114 53
122 115 52
121 115 51
120 114 49
121 113 51
119 112 55
118 111 54
123 114 55
120 112 51
114 108 58
121 111 53
117 108 63
120 110 54
108 100 68
113 104 66
169 204 255
168 203 255
167 202 255
166 202 255
102 124 255
8 10 255
6 8 255
9 11 255
11 13 255
0 0 255
4 5 250
71 87 174
132 155 174
172 199 184
182 207 207
183 209 215
171 198 186
145 167 204
79 94 194
28 37 209
7 9 255
7 10 254
51 68 238
75 106 177
114 149 217
123 158 216
14 36 94
15 37 97
15 37 84
14 36 88
15 37 94
14 36 87
15 37 95
14 36 87
14 36 87
14 37 90
15 37 97
14 36 75
14 36 94
15 36 78
14 35 85
15 37 94
14 35 83
14 36 86
14 36 83
14 36 93
14 35 85
14 34 79
43 49 66
57 60 56
58 61 45
71 73 52
86 87 49
92 90 43
85 84 44
94 92 43
106 102 50
120 112 47
119 112 47
124 116 48
126 117 49
124 116 47
122 114 47
123 115 47
122 114 48
124 114 47
119 111 54
123 113 50
115 107 58
119 109 57
123 113 45
117 108 61
119 110 52
118 108 56
112 103 68
175 207 255
174 207 255
173 206 255
142 170 255
13 16 255
8 10 255
10 12 255
5 6 255
3 4 255
31 36 240
165 188 222
193 217 250
188 213 243
192 218 255
187 212 245
181 206 238
189 215 253
187 212 248
190 216 250
171 196 217
38 46 223
0 1 250
0 1 249
7 20 163
12 31 115
24 45 110
14 35 88
15 37 93
14 37 90
15 37 99
15 36 89
14 36 81
15 37 93
14 35 80
14 36 83
14 36 72
14 36 80
14 36 87
15 37 92
14 36 79
14 35 76
14 35 72
14 36 79
14 36 87
14 35 78
14 35 79
14 35 86
14 34 82
20 32 59
34 36 45
35 39 34
48 51 41
53 56 32
74 74 35
89 86 42
98 94 39
110 103 41
118 110 44
116 109 43
118 110 42
127 117 45
124 115 44
122 114 45
125 115 43
125 115 47
124 114 44
121 112 44
118 109 46
118 109 49
123 112 47
117 107 50
122 111 53
112 103 58
113 104 66
108 98 68
180 210 255
180 210 255
179 209 255
56 66 255
10 12 255
7 8 255
8 10 255
10 12 255
17 19 255
170 192 243
191 216 253
191 217 255
182 207 243
186 212 243
187 213 248
181 207 240
183 209 240
189 215 253
186 212 243
190 216 248
182 207 223
52 59 240
0 2 247
2 5 235
9 24 103
13 34 88
14 36 88
15 37 90
15 37 94
15 37 94
14 36 79
15 36 87
14 35 70
13 34 63
14 36 78
14 36 87
14 36 83
14 35 75
14 35 78
14 34 72
14 35 75
15 37 89
14 34 75
15 36 82
13 34 70
14 34 73
14 34 77
14 35 75
14 32 72
20 23 26
22 26 27
27 32 18
48 50 24
77 75 34
77 76 32
84 81 36
112 105 40
107 101 36
119 110 44
114 106 38
120 110 36
123 113 39
119 109 33
125 115 43
121 111 35
125 113 41
122 112 38
121 111 40
124 114 42
120 109 49
117 107 46
115 105 50
116 105 55
110 100 57
111 102 59
186 214 255
186 214 255
180 207 255
9 10 255
12 14 255
5 6 255
7 8 255
9 10 255
90 101 253
189 215 243
187 212 238
190 216 253
186 211 248
189 215 253
181 206 240
181 207 238
188 214 245
187 213 243
189 216 253
188 214 245
185 210 243
143 162 247
0 1 248
0 0 252
7 18 126
13 33 79
15 37 90
15 36 84
13 34 70
14 36 83
14 36 76
14 35 72
15 37 83
14 35 75
14 35 74
14 34 69
14 35 69
14 35 75
14 34 72
14 34 78
14 34 67
14 35 78
14 35 80
13 34 73
13 33 69
13 34 77
13 32 72
13 34 78
12 29 64
5 9 15
8 12 8
21 26 17
48 50 25
60 59 24
77 74 28
92 87 31
105 96 37
103 96 33
115 105 34
112 105 30
118 108 33
119 109 33
122 112 34
126 115 38
125 113 35
121 111 33
122 112 34
119 109 37
122 111 34
118 109 40
113 105 42
119 109 48
108 99 54
113 103 54
109 100 51
192 217 255
192 217 255
167 189 255
5 6 255
5 6 255
1 2 255
7 8 255
3 4 255
134 152 255
191 217 255
192 217 255
186 212 250
184 209 248
186 212 250
184 209 247
191 216 253
191 216 253
190 216 253
191 217 255
191 217 255
186 212 250
165 187 253
0 2 245
0 0 250
5 12 148
13 34 75
14 35 83
14 35 70
14 36 81
13 34 66
13 34 69
13 34 70
14 35 67
15 36 78
14 35 71
13 34 69
14 35 87
14 36 85
14 36 76
14 35 69
15 36 79
14 34 66
14 34 74
13 33 65
13 34 77
14 34 78
13 33 66
13 33 81
12 30 61
6 9 16
9 14 19
18 21 18
35 37 18
49 50 17
68 66 23
73 70 21
96 90 27
100 93 24
107 99 27
113 104 29
116 106 30
123 112 34
120 110 31
120 109 32
115 106 37
113 104 27
123 111 34
116 106 26
117 106 43
112 102 31
116 106 33
109 100 61
110 101 44
106 98 45
110 101 48
170 197 168
162 191 148
158 185 153
8 9 250
7 9 248
4 6 245
9 11 240
8 10 245
104 119 255
189 215 250
185 212 238
187 213 249
187 212 248
183 209 245
187 212 248
188 214 243
186 213 238
190 216 250
190 216 253
179 205 232
187 213 250
140 161 240
0 0 249
0 0 245
6 16 121
14 36 76
14 35 75
13 33 61
14 34 70
13 33 65
14 35 66
14 34 71
14 35 70
14 35 78
14 35 83
13 34 67
14 34 69
14 35 69
13 33 58
13 33 63
14 35 67
13 33 61
14 34 66
13 32 53
14 35 74
13 33 62
13 32 59
12 30 51
12 28 55
7 10 17
15 18 14
16 19 10
21 25 10
43 44 12
75 72 17
75 72 18
88 83 18
96 89 24
102 95 21
108 100 24
108 101 22
109 99 22
112 104 22
114 103 26
116 105 27
115 105 24
112 103 23
119 109 29
113 102 36
112 102 34
111 102 42
119 107 32
111 102 30
109 100 46
105 97 38
119 152 0
118 152 0
121 155 0
33 42 181
3 4 248
1 1 253
1 1 253
5 7 243
15 17 250
174 200 243
187 214 250
187 213 243
186 212 240
191 217 255
187 213 240
188 214 243
187 214 245
188 214 248
188 215 250
181 208 236
180 207 250
49 57 238
0 1 243
1 4 211
6 17 83
11 29 61
13 34 58
13 33 63
13 33 52
13 34 65
14 35 71
14 34 65
14 35 62
14 35 69
13 34 65
13 32 52
14 35 65
14 34 70
14 35 66
13 33 53
13 33 55
13 32 61
13 33 55
13 33 46
14 34 69
13 32 61
13 32 64
13 31 57
12 27 51
7 10 28
14 17 9
21 24 7
29 31 12
37 40 8
57 56 13
65 63 9
83 79 14
88 82 17
107 98 21
98 91 19
103 95 20
104 97 17
105 97 17
105 97 19
108 99 19
105 97 17
104 96 21
109 100 24
105 97 23
112 102 33
112 103 34
107 98 40
104 95 31
109 100 35
103 94 45
118 152 0
114 148 0
114 150 0
86 112 63
10 13 232
3 4 248
4 6 245
5 7 243
2 3 250
56 65 245
154 179 240
184 212 245
185 212 240
183 211 240
190 216 253
186 213 248
183 210 238
187 213 245
186 213 248
172 199 248
49 58 248
0 0 245
0 0 254
6 16 106
7 18 44
17 34 42
13 32 53
13 34 60
13 32 56
13 33 52
13 33 51
13 34 67
13 34 60
13 33 63
13 33 55
13 34 65
14 35 71
13 34 58
13 34 56
13 33 55
13 34 67
13 34 60
12 30 48
14 35 70
13 33 62
13 34 65
13 32 56
12 29 49
13 24 39
15 16 17
16 17 14
21 22 16
33 34 3
46 46 6
49 48 7
68 64 9
76 73 10
80 76 9
91 86 10
96 89 11
96 90 16
98 90 11
103 96 14
100 92 14
99 91 20
106 97 27
103 94 15
103 94 25
104 96 26
106 98 19
106 97 36
101 93 32
101 92 40
104 94 49
104 95 43
117 150 0
119 152 0
118 152 0
118 152 0
77 98 87
4 6 245
2 3 250
2 2 250
2 3 250
2 2 250
21 25 240
69 82 250
138 162 240
178 208 250
180 209 248
179 207 240
178 208 248
157 183 255
102 119 248
23 28 250
1 1 248
1 1 245
6 11 125
17 28 15
44 61 7
62 86 17
13 33 55
13 34 55
12 32 55
13 33 52
13 33 56
12 31 52
14 35 69
13 33 56
14 34 63
13 33 51
13 32 52
13 33 60
13 33 56
14 34 63
13 33 67
12 31 52
13 33 49
13 32 57
13 33 66
13 33 61
12 30 48
12 29 46
34 36 60
24 24 40
22 22 13
28 28 5
40 39 13
46 45 8
53 52 4
63 60 11
70 66 7
70 67 5
84 79 8
88 82 8
90 83 12
89 83 9
87 82 9
93 86 12
94 87 9
102 94 19
94 88 29
97 90 13
95 89 24
94 87 25
95 87 28
102 93 31
97 89 33
92 84 45
94 87 44
113 147 0
117 151 0
114 147 0
111 144 0
115 148 0
90 117 48
24 31 202
2 3 250
5 7 243
6 8 240
6 8 238
3 3 245
8 10 238
10 12 245
26 32 245
12 15 248
15 18 243
4 6 243
8 11 235
2 3 240
1 2 232
30 40 104
53 69 0
61 80 0
60 81 0
94 121 0
19 38 37
12 30 43
12 31 46
13 33 57
12 31 42
13 33 48
13 34 60
13 32 55
13 33 52
12 32 55
14 35 69
12 32 47
13 33 62
13 34 67
12 31 43
13 33 60
13 32 47
13 32 56
13 33 55
12 30 46
12 30 54
25 43 39
59 62 54
35 32 35
41 37 26
26 26 16
41 40 8
44 42 4
47 46 8
65 61 3
62 58 14
74 69 3
74 70 4
77 73 2
77 74 9
80 74 17
84 79 5
84 79 7
92 84 12
93 86 17
99 91 12
95 88 12
99 90 26
94 86 30
95 87 20
106 96 23
90 83 49
96 87 45
88 81 45
115 148 0
113 147 0
112 145 0
109 140 0
113 146 0
114 146 0
100 131 15
68 87 94
16 21 215
3 4 243
2 2 250
3 4 248
4 6 245
7 9 238
2 3 245
3 4 248
5 7 243
2 3 243
10 13 227
33 43 148
57 74 23
68 89 0
61 80 0
55 72 0
72 96 0
92 121 0
68 94 16
11 28 38
12 31 48
12 30 40
12 32 53
13 33 65
12 31 49
12 31 61
12 31 43
12 32 49
13 33 55
13 32 52
13 32 56
12 31 52
13 32 33
12 30 40
13 32 43
12 30 45
11 28 38
12 30 48
12 29 36
72 94 12
96 118 13
48 47 83
38 34 40
37 35 25
33 31 28
42 39 17
54 50 10
57 54 6
64 60 7
70 65 2
69 66 7
74 69 7
77 72 2
82 77 4
77 73 13
83 76 13
89 82 13
80 74 13
90 82 22
86 80 29
91 85 30
88 81 38
90 83 16
83 75 45
82 76 29
92 83 49
88 81 46
111 143 0
112 145 0
108 139 0
106 137 0
108 139 0
109 141 0
102 132 0
102 133 0
102 131 0
75 98 51
54 70 107
32 42 161
24 31 189
30 38 174
30 38 174
40 53 143
48 62 102
54 71 53
81 105 2
72 93 0
64 84 0
61 79 0
63 82 0
71 91 0
97 125 0
101 129 0
92 119 0
41 62 20
12 31 48
12 31 40
12 32 42
12 31 49
12 31 44
12 31 42
13 32 52
12 31 47
12 30 48
12 30 34
12 31 47
12 30 44
12 31 56
13 32 55
12 30 47
11 28 30
11 27 36
12 30 48
32 47 31
91 111 0
95 115 0
79 91 13
45 42 63
30 27 62
36 33 35
40 37 35
45 41 15
52 48 15
60 55 7
56 52 12
64 56 8
59 55 7
67 64 16
67 63 12
79 73 16
77 70 22
76 71 9
80 74 18
89 82 15
83 78 18
79 73 36
82 76 34
80 75 16
81 76 38
77 69 48
86 80 36
82 75 53
113 146 0
111 143 0
109 141 0
107 138 0
103 134 0
102 132 0
100 130 0
92 120 0
106 136 0
103 133 0
106 135 0
102 132 0
98 126 0
92 118 0
80 105 0
81 105 0
85 109 0
76 99 0
72 95 0
60 79 0
67 87 0
57 75 0
76 97 0
82 105 0
75 97 0
75 98 0
81 104 0
71 92 1
26 46 39
12 29 37
12 30 39
12 31 39
13 33 48
12 31 46
12 31 42
13 32 56
12 31 52
11 29 42
11 29 38
12 30 48
11 29 39
12 31 40
11 29 38
11 28 34
10 25 29
17 31 21
84 100 1
69 81 0
68 78 0
70 79 0
77 85 7
41 41 58
28 23 72
36 31 46
43 36 33
44 39 20
52 45 15
55 51 23
61 53 10
64 57 12
62 57 20
74 67 21
62 56 20
73 67 19
74 68 20
79 73 8
72 67 22
76 69 29
81 74 30
78 71 23
75 67 56
77 70 46
75 69 48
86 79 45
72 65 60
114 144 0
116 148 0
108 137 0
105 136 0
109 138 0
106 135 0
109 137 0
103 131 0
102 129 0
97 123 0
94 119 0
102 130 0
90 115 0
100 126 0
82 105 0
80 101 0
69 89 0
76 97 0
74 95 0
64 82 0
56 71 0
68 87 0
75 95 0
74 94 0
64 83 0
68 90 0
70 91 0
75 97 0
59 79 2
17 31 20
11 29 34
11 29 37
12 30 40
12 31 46
13 32 42
11 28 31
11 28 35
12 31 48
12 30 49
11 30 34
11 29 38
12 30 38
10 25 23
10 25 33
20 34 19
59 71 0
65 76 0
49 58 0
60 70 0
66 74 0
57 62 0
42 43 0
46 45 28
33 28 66
36 29 61
38 31 33
53 47 30
46 39 35
51 44 43
54 47 38
69 61 30
61 53 28
60 53 40
61 54 23
70 63 28
66 59 34
66 57 28
66 61 46
75 68 29
72 64 45
68 62 49
72 67 50
68 62 68
68 63 70
68 63 72
108 138 0
114 145 0
112 140 0
105 133 0
102 130 0
104 132 0
97 123 0
108 135 0
99 126 0
101 126 0
94 118 0
87 111 0
99 124 0
89 110 0
84 107 0
90 113 0
80 101 0
64 83 0
59 76 0
68 87 0
50 65 0
65 84 0
66 84 0
57 74 0
70 90 0
65 85 0
58 75 0
55 73 0
51 68 0
49 65 0
21 34 7
11 26 19
11 27 35
10 26 26
11 28 33
10 26 33
10 25 31
11 27 30
10 26 28
10 26 24
9 24 25
10 26 35
11 26 28
27 38 7
44 55 1
48 59 0
49 62 0
52 62 0
61 71 0
51 58 0
43 47 0
50 53 0
47 45 0
47 48 2
28 25 33
31 24 56
33 27 69
36 28 66
45 37 56
51 43 48
46 38 43
63 56 38
59 51 23
68 59 28
66 57 26
54 48 48
63 55 57
65 57 62
64 56 52
63 56 69
65 58 65
64 58 70
63 57 86
63 65 94
84 95 55
115 148 0
116 149 0
108 137 0
106 133 0
105 132 0
104 131 0
105 131 0
92 115 0
91 114 0
95 120 0
86 108 0
84 105 0
84 107 0
72 92 0
83 106 0
59 76 0
60 78 0
55 71 0
61 78 0
60 77 0
56 73 0
68 87 0
68 88 0
52 70 0
68 88 0
64 83 0
57 76 0
62 80 0
56 74 0
58 76 0
27 38 0
30 41 1
15 26 10
9 22 20
10 25 17
9 24 25
9 24 24
9 24 16
9 23 23
8 22 7
11 24 20
15 26 5
32 41 0
43 52 0
34 46 0
47 57 0
47 59 0
55 67 0
52 61 0
53 64 0
55 61 0
53 60 0
57 64 0
51 54 0
55 57 0
39 37 0
34 32 0
32 26 46
30 25 51
32 25 76
33 25 63
31 25 102
41 33 76
43 34 79
57 48 63
51 43 67
52 43 85
40 34 102
60 52 66
54 50 104
56 55 90
83 91 55
97 114 20
111 138 0
109 137 0
112 142 0
114 145 0
106 134 0
105 133 0
108 137 0
98 123 0
106 133 0
85 108 0
86 108 0
92 114 0
70 88 0
76 95 0
75 94 0
57 73 0
62 78 0
69 88 0
73 94 0
65 84 0
68 87 0
63 82 0
76 98 0
74 96 0
68 89 0
58 78 0
64 84 0
57 76 0
58 78 0
50 67 0
50 67 0
50 67 0
39 53 0
43 57 0
36 47 0
24 32 0
18 26 0
16 25 5
14 22 3
12 20 6
15 23 0
13 19 2
23 31 0
31 40 0
38 47 0
38 47 0
46 59 0
47 61 0
47 59 0
50 61 0
54 65 0
62 76 0
63 74 0
55 64 0
59 67 0
53 59 0
58 63 0
58 61 0
49 47 0
53 51 0
51 49 0
53 48 0
48 43 5
51 45 12
44 39 43
58 54 12
56 52 44
65 63 43
77 78 35
80 84 23
87 93 7
90 99 0
101 115 0
99 116 0
105 127 0
107 128 0
111 134 0
106 132 0
101 127 0
105 131 0
109 137 0
94 119 0
93 116 0
99 123 0
88 110 0
90 112 0
80 101 0
84 106 0
83 105 0
79 99 0
64 83 0
88 111 0
75 95 0
75 96 0
78 99 0
86 110 0
63 83 0
63 83 0
65 86 0
63 84 0
71 93 0
74 98 0
71 93 0
74 96 0
48 65 0
45 61 0
57 76 0
41 55 0
47 62 0
46 61 0
39 52 0
33 46 0
25 35 0
26 35 0
27 37 0
26 34 0
38 49 0
30 40 0
33 43 0
34 44 0
42 55 0
43 57 0
53 67 0
49 61 0
53 65 0
57 72 0
56 67 0
69 83 0
62 77 0
66 78 0
52 62 0
61 69 0
66 71 0
55 58 0
66 73 0
64 66 0
60 62 0
73 77 0
59 62 0
61 60 0
65 64 0
63 61 0
72 71 0
84 86 0
78 82 0
82 84 0
96 102 0
97 107 0
96 106 0
96 109 0
100 114 0
101 121 0
107 135 0
107 134 0
102 127 0
104 130 0
98 121 0
105 130 0
98 123 0
90 113 0
96 121 0
86 108 0
84 108 0
91 113 0
78 100 0
82 106 0
82 104 0
84 107 0
68 89 0
80 102 0
77 101 0
80 104 0
71 95 0
82 106 0
69 92 0
72 94 0
61 82 0
69 91 0
65 87 0
66 88 0
62 82 0
44 60 0
52 68 0
51 68 0
48 65 0
48 63 0
44 58 0
34 47 0
44 59 0
37 51 0
39 52 0
33 44 0
35 47 0
46 61 0
51 63 0
50 65 0
61 78 0
63 80 0
60 77 0
55 69 0
66 83 0
64 80 0
66 81 0
62 78 0
62 77 0
71 87 0
74 86 0
71 84 0
68 79 0
70 80 0
69 76 0
75 82 0
66 72 0
70 73 0
77 80 0
77 81 0
70 73 0
79 84 0
77 79 0
86 90 0
91 95 0
86 89 0
95 105 0
90 96 0
98 109 0
95 108 0
102 118 0
107 134 0
99 124 0
102 127 0
104 130 0
88 109 0
96 120 0
95 120 0
104 130 0
94 119 0
98 123 0
93 116 0
86 110 0
92 117 0
90 114 0
83 106 0
89 115 0
94 121 0
85 111 0
76 99 0
84 110 0
72 94 0
75 98 0
77 102 0
67 89 0
78 104 0
71 94 0
68 90 0
67 88 0
63 84 0
66 87 0
63 83 0
65 85 0
52 70 0
55 74 0
55 74 0
53 72 0
53 70 0
45 61 0
52 70 0
60 78 0
50 68 0
48 63 0
53 68 0
62 80 0
53 68 0
55 73 0
63 80 0
55 71 0
66 84 0
76 95 0
66 86 0
62 76 0
70 89 0
79 97 0
77 97 0
76 92 0
77 92 0
80 93 0
74 87 0
78 91 0
79 92 0
74 81 0
81 92 0
89 100 0
76 81 0
72 77 0
84 91 0
78 82 0
77 81 0
83 93 0
83 90 0
92 102 0
87 97 0
101 111 0
97 111 0
110 138 0
90 113 0
98 124 0
105 130 0
99 124 0
87 109 0
94 119 0
97 122 0
91 116 0
83 106 0
96 121 0
86 109 0
89 115 0
87 113 0
82 106 0
89 114 0
85 112 0
84 109 0
83 110 0
67 89 0
83 110 0
72 95 0
69 92 0
79 105 0
71 95 0
77 101 0
72 95 0
64 87 0
73 96 0
67 89 0
62 84 0
65 88 0
62 80 0
58 78 0
44 62 0
51 68 0
55 74 0
52 70 0
58 77 0
60 80 0
49 67 0
60 78 0
63 83 0
55 72 0
69 90 0
60 79 0
61 79 0
71 90 0
64 85 0
58 74 0
62 79 0
80 103 0
66 84 0
73 91 0
75 93 0
76 95 0
71 90 0
85 102 0
74 91 0
82 98 0
67 79 0
83 95 0
78 90 0
75 86 0
79 92 0
84 95 0
83 93 0
85 96 0
89 100 0
89 99 0
85 94 0
80 88 0
82 90 0
97 110 0
95 109 0
91 115 0
94 119 0
101 128 0
101 128 0
98 126 0
101 128 0
89 114 0
92 117 0
93 119 0
85 111 0
87 112 0
86 110 0
86 111 0
91 117 0
91 117 0
78 104 0
84 109 0
85 112 0
82 108 0
81 107 0
78 103 0
84 111 0
71 94 0
81 108 0
75 100 0
77 101 0
63 84 0
67 89 0
72 95 0
61 82 0
71 93 0
65 87 0
63 84 0
64 86 0
58 79 0
62 83 0
56 77 0
62 82 0
73 96 0
62 83 0
57 76 0
61 80 0
70 91 0
68 90 0
68 90 0
66 87 0
68 88 0
75 96 0
69 89 0
67 88 0
75 95 0
67 86 0
72 94 0
73 91 0
71 90 0
68 88 0
77 97 0
83 102 0
87 107 0
88 109 0
82 98 0
91 107 0
84 98 0
75 90 0
85 100 0
80 90 0
82 96 0
81 92 0
87 103 0
84 95 0
86 97 0
89 97 0
95 109 0
93 107 0
87 100 0
101 128 0
100 126 0
92 117 0
98 126 0
95 122 0
97 124 0
88 114 0
90 115 0
93 119 0
94 121 0
94 122 0
88 115 0
93 120 0
77 102 0
86 112 0
86 112 0
85 110 0
78 103 0
85 113 0
92 120 0
77 102 0
71 96 0
73 98 0
85 113 0
86 114 0
82 108 0
81 107 0
73 98 0
63 87 0
72 96 0
73 97 0
73 96 0
78 103 0
67 88 0
65 86 0
57 76 0
61 81 0
76 100 0
61 81 0
67 87 0
65 87 0
61 82 0
75 98 0
62 81 0
63 85 0
69 92 0
77 98 0
76 96 0
72 94 0
68 90 0
77 97 0
76 97 0
79 99 0
71 91 0
76 98 0
79 101 0
79 99 0
77 97 0
87 104 0
88 110 0
88 109 0
92 114 0
83 100 0
89 107 0
83 103 0
84 98 0
89 105 0
86 101 0
90 103 0
82 94 0
84 93 0
91 107 0
90 105 0
89 100 0
95 111 0
96 123 0
100 126 0
104 133 0
95 120 0
102 130 0
94 120 0
97 126 0
90 117 0
92 118 0
90 118 0
94 122 0
90 118 0
94 123 0
82 107 0
95 124 0
94 123 0
83 110 0
87 114 0
87 116 0
79 103 0
85 111 0
72 96 0
79 104 0
78 104 0
72 98 0
75 100 0
81 107 0
70 95 0
71 95 0
75 99 0
77 102 0
73 97 0
71 95 0
63 86 0
67 89 0
80 103 0
81 106 0
79 103 0
65 87 0
74 97 0
58 79 0
67 91 0
70 92 0
75 98 0
66 88 0
63 84 0
68 91 0
74 95 0
76 100 0
74 96 0
68 90 0
71 92 0
79 102 0
80 100 0
82 105 0
83 106 0
93 118 0
81 101 0
86 110 0
76 96 0
92 115 0
85 107 0
91 112 0
87 106 0
82 98 0
91 110 0
89 107 0
93 113 0
92 109 0
85 101 0
90 107 0
86 99 0
91 105 0
92 108 0
99 115 0
96 122 0
92 119 0
93 120 0
99 127 0
93 121 0
92 119 0
92 119 0
94 122 0
81 107 0
96 124 0
93 121 0
80 105 0
89 118 0
87 113 0
90 118 0
91 117 0
94 122 0
90 118 0
81 107 0
80 106 0
83 109 0
85 111 0
71 96 0
81 108 0
65 89 0
83 110 0
80 106 0
85 111 0
70 95 0
80 107 0
74 100 0
69 92 0
71 95 0
77 99 0
82 109 0
73 95 0
70 94 0
66 88 0
86 113 0
71 92 0
73 97 0
78 102 0
76 100 0
78 103 0
73 97 0
77 101 0
77 103 0
77 99 0
81 105 0
77 99 0
89 113 0
84 106 0
83 103 0
92 116 0
78 99 0
80 102 0
83 107 0
84 107 0
74 93 0
84 106 0
96 118 0
94 117 0
86 106 0
90 111 0
88 105 0
79 99 0
85 105 0
88 105 0
95 113 0
82 95 0
88 105 0
95 117 0
95 112 0
93 112 0
89 103 0
