P3
75 42
255
163 200 255
162 199 255
162 199 255
161 199 255
161 199 255
160 198 255
159 198 255
159 198 255
158 197 255
158 197 255
157 197 255
157 196 255
156 196 255
156 196 255
155 195 255
154 195 255
154 194 255
153 194 255
153 194 255
152 193 255
151 193 255
151 193 255
150 192 255
150 192 255
149 192 255
149 191 255
148 191 255
148 191 255
148 191 255
147 190 255
147 190 255
146 190 255
146 190 255
146 190 255
146 190 255
146 190 255
146 190 255
146 190 255
146 190 255
146 190 255
146 190 255
146 190 255
147 190 255
147 190 255
147 190 255
147 191 255
148 191 255
148 191 255
149 192 255
149 192 255
150 192 255
150 192 255
151 193 255
151 193 255
152 193 255
153 194 255
153 194 255
154 194 255
154 195 255
155 195 255
155 195 255
156 196 255
157 196 255
157 197 255
158 197 255
158 197 255
159 198 255
159 198 255
160 198 255
161 199 255
161 199 255
162 199 255
162 199 255
162 200 255
163 200 255
164 200 255
163 200 255
163 200 255
162 199 255
162 199 255
161 199 255
161 199 255
160 198 255
160 198 255
159 198 255
158 197 255
158 197 255
157 197 255
157 196 255
156 196 255
156 196 255
155 195 255
154 195 255
154 194 255
153 194 255
153 194 255
152 193 255
151 193 255
151 193 255
151 193 255
150 192 255
149 192 255
149 192 255
149 191 255
148 191 255
148 191 255
148 191 255
147 191 255
147 190 255
147 190 255
147 190 255
147 190 255
147 190 255
147 190 255
147 190 255
147 190 255
147 191 255
148 191 255
148 191 255
148 191 255
149 191 255
149 192 255
150 192 255
150 192 255
150 192 255
151 193 255
152 193 255
152 193 255
153 194 255
153 194 255
154 194 255
154 195 255
155 195 255
156 196 255
156 196 255
157 196 255
157 197 255
158 197 255
159 197 255
159 198 255
160 198 255
160 198 255
161 199 255
161 199 255
162 199 255
162 200 255
163 200 255
163 200 255
164 200 255
164 201 255
165 201 255
164 201 255
164 201 255
163 200 255
163 200 255
162 200 255
162 199 255
161 199 255
161 199 255
160 198 255
160 198 255
159 198 255
159 197 255
158 197 255
157 197 255
157 196 255
156 196 255
156 196 255
155 195 255
155 195 255
154 195 255
153 194 255
153 194 255
152 194 255
152 193 255
151 193 255
151 193 255
150 192 255
150 192 255
150 192 255
149 192 255
149 191 255
148 191 255
148 191 255
148 191 255
148 191 255
148 191 255
148 191 255
148 191 255
148 191 255
148 191 255
149 191 255
149 191 255
149 192 255
149 192 255
150 192 255
150 192 255
151 193 255
151 193 255
152 193 255
152 194 255
153 194 255
153 194 255
154 195 255
154 195 255
155 195 255
156 196 255
156 196 255
157 196 255
157 197 255
158 197 255
159 197 255
159 198 255
160 198 255
160 198 255
161 199 255
161 199 255
162 199 255
162 200 255
163 200 255
163 200 255
164 201 255
164 201 255
165 201 255
165 201 255
166 202 255
165 201 255
165 201 255
165 201 255
164 201 255
164 200 255
163 200 255
163 200 255
162 199 255
161 199 255
161 199 255
160 198 255
160 198 255
159 198 255
159 197 255
158 197 255
158 197 255
157 196 255
156 196 255
156 196 255
155 195 255
155 195 255
154 195 255
154 194 255
153 194 255
152 194 255
152 193 255
152 193 255
151 193 255
151 193 255
150 192 255
150 192 255
150 192 255
150 192 255
149 192 255
149 192 255
149 192 255
149 192 255
149 192 255
149 192 255
150 192 255
150 192 255
150 192 255
150 192 255
151 193 255
151 193 255
152 193 255
152 193 255
153 194 255
153 194 255
154 194 255
154 195 255
155 195 255
155 195 255
156 196 255
156 196 255
157 196 255
158 197 255
158 197 255
159 197 255
159 198 255
160 198 255
161 199 255
161 199 255
162 199 255
162 199 255
163 200 255
163 200 255
164 200 255
164 201 255
165 201 255
165 201 255
165 201 255
166 202 255
166 202 255
167 203 255
167 202 255
166 202 255
166 202 255
165 201 255
165 201 255
164 201 255
164 201 255
163 200 255
163 200 255
162 200 255
162 199 255
161 199 255
161 199 255
160 198 255
160 198 255
159 198 255
158 197 255
158 197 255
157 197 255
157 196 255
156 196 255
155 195 255
155 195 255
154 195 255
154 195 255
153 194 255
153 194 255
153 194 255
152 194 255
152 193 255
151 193 255
151 193 255
151 193 255
151 193 255
151 193 255
151 193 255
151 193 255
151 193 255
151 193 255
151 193 255
151 193 255
151 193 255
152 193 255
152 193 255
153 194 255
153 194 255
153 194 255
154 195 255
154 195 255
155 195 255
155 195 255
156 196 255
157 196 255
157 197 255
158 197 255
158 197 255
159 198 255
160 198 255
160 198 255
161 199 255
161 199 255
162 199 255
162 200 255
163 200 255
163 200 255
164 201 255
164 201 255
165 201 255
165 201 255
166 202 255
166 202 255
167 202 255
167 202 255
168 203 255
168 203 255
168 203 255
168 203 255
167 202 255
167 202 255
166 202 255
166 202 255
165 201 255
165 201 255
164 201 255
164 200 255
163 200 255
163 200 255
162 199 255
162 199 255
161 199 255
160 198 255
160 198 255
159 198 255
159 197 255
158 197 255
158 197 255
157 196 255
156 196 255
156 196 255
155 195 255
155 195 255
154 195 255
154 195 255
154 194 255
153 194 255
153 194 255
153 194 255
153 194 255
152 194 255
152 194 255
152 193 255
152 193 255
152 193 255
152 194 255
153 194 255
153 194 255
153 194 255
153 194 255
154 194 255
154 195 255
154 195 255
155 195 255
155 195 255
156 196 255
156 196 255
157 196 255
157 197 255
158 197 255
159 197 255
159 198 255
160 198 255
160 198 255
161 199 255
162 199 255
162 199 255
163 200 255
163 200 255
164 200 255
164 201 255
165 201 255
165 201 255
166 202 255
166 202 255
167 202 255
167 202 255
168 203 255
168 203 255
168 203 255
169 204 255
170 204 255
169 204 255
169 203 255
168 203 255
168 203 255
167 203 255
167 202 255
167 202 255
166 202 255
166 202 255
165 201 255
165 201 255
164 201 255
164 200 255
163 200 255
163 200 255
162 199 255
161 199 255
161 199 255
160 198 255
160 198 255
159 198 255
159 197 255
158 197 255
157 197 255
157 196 255
157 196 255
156 196 255
156 196 255
155 195 255
155 195 255
155 195 255
154 195 255
154 195 255
154 195 255
154 194 255
154 194 255
154 194 255
154 194 255
154 195 255
154 195 255
154 195 255
155 195 255
155 195 255
155 195 255
156 196 255
156 196 255
156 196 255
157 196 255
157 197 255
158 197 255
159 197 255
159 198 255
160 198 255
160 198 255
161 199 255
161 199 255
162 199 255
162 200 255
163 200 255
164 200 255
164 201 255
165 201 255
165 201 255
166 202 255
166 202 255
167 202 255
167 202 255
168 203 255
168 203 255
168 203 255
169 204 255
169 204 255
170 204 255
170 204 255
171 205 255
171 205 255
170 204 255
170 204 255
169 204 255
169 204 255
168 203 255
168 203 255
168 203 255
167 203 255
167 202 255
166 202 255
166 202 255
165 201 255
165 201 255
164 201 255
163 200 255
163 200 255
162 200 255
162 199 255
161 199 255
161 199 255
160 198 255
160 198 255
159 198 255
159 197 255
158 197 255
158 197 255
157 197 255
157 196 255
157 196 255
156 196 255
156 196 255
156 196 255
156 196 255
156 196 255
155 195 255
155 195 255
156 196 255
156 196 255
156 196 255
156 196 255
156 196 255
157 196 255
157 196 255
157 197 255
158 197 255
158 197 255
159 197 255
159 198 255
160 198 255
160 198 255
161 199 255
161 199 255
162 199 255
162 200 255
163 200 255
163 200 255
164 201 255
165 201 255
165 201 255
166 202 255
166 202 255
167 202 255
167 202 255
168 203 255
168 203 255
169 203 255
169 204 255
169 204 255
170 204 255
170 204 255
171 205 255
171 205 255
171 205 255
172 206 255
172 205 255
172 205 255
171 205 255
171 205 255
170 204 255
170 204 255
169 204 255
169 204 255
169 203 255
168 203 255
168 203 255
167 203 255
167 202 255
166 202 255
166 202 255
165 201 255
165 201 255
164 201 255
164 200 255
163 200 255
163 200 255
162 199 255
161 199 255
161 199 255
160 198 255
160 198 255
160 198 255
159 198 255
159 197 255
158 197 255
158 197 255
158 197 255
158 197 255
157 197 255
157 197 255
157 196 255
157 197 255
157 197 255
157 197 255
158 197 255
158 197 255
158 197 255
158 197 255
159 197 255
159 198 255
159 198 255
160 198 255
160 198 255
161 199 255
161 199 255
162 199 255
162 200 255
163 200 255
164 200 255
164 201 255
165 201 255
165 201 255
166 202 255
166 202 255
167 202 255
167 203 255
168 203 255
168 203 255
169 203 255
169 204 255
170 204 255
170 204 255
170 204 255
171 205 255
171 205 255
172 205 255
172 205 255
172 206 255
173 206 255
174 206 255
173 206 255
173 206 255
173 206 255
172 206 255
171 205 255
169 204 255
167 202 255
166 202 255
165 201 255
165 201 255
166 202 255
166 202 255
168 203 255
168 203 255
167 203 255
167 202 255
166 202 255
166 202 255
165 201 255
165 201 255
164 201 255
164 200 255
163 200 255
163 200 255
162 200 255
162 199 255
161 199 255
161 199 255
161 199 255
160 198 255
160 198 255
160 198 255
160 198 255
151 188 248
117 151 217
124 159 223
107 140 208
127 162 225
146 183 244
160 198 255
160 198 255
160 198 255
160 198 255
161 199 255
161 199 255
161 199 255
162 199 255
162 200 255
163 200 255
163 200 255
164 200 255
164 201 255
165 201 255
165 201 255
166 202 255
166 202 255
167 202 255
167 203 255
168 203 255
165 198 253
158 188 233
140 163 219
144 167 217
138 160 215
136 156 210
154 179 221
152 177 229
161 191 245
172 206 255
173 206 255
173 206 255
173 206 255
174 206 255
174 207 255
175 207 255
173 206 255
169 204 255
163 200 255
157 197 255
153 194 255
149 192 255
147 190 255
144 189 255
142 187 255
142 187 255
141 187 255
142 187 255
144 188 255
151 193 255
154 195 255
161 199 255
168 203 255
168 203 255
167 202 255
167 202 255
166 202 255
166 202 255
165 201 255
165 201 255
164 201 255
164 200 255
163 200 255
163 200 255
163 200 255
162 200 255
150 187 244
87 117 186
37 62 134
15 38 117
15 38 115
15 38 117
15 38 119
15 38 119
15 38 120
44 70 148
94 125 189
146 182 241
162 200 255
163 200 255
163 200 255
163 200 255
164 201 255
164 201 255
165 201 255
165 201 255
166 202 255
166 202 255
167 202 255
167 202 255
168 203 255
159 190 243
128 148 204
106 119 184
90 93 126
80 79 122
81 80 108
81 80 110
84 82 105
85 83 104
84 82 108
91 89 95
89 86 102
80 76 122
82 81 139
95 102 181
123 134 172
153 176 223
175 206 253
175 207 255
165 201 255
159 198 255
154 195 255
151 193 255
148 191 255
145 189 255
142 188 255
140 186 255
138 185 255
136 184 255
134 183 255
133 182 255
132 181 255
132 181 255
131 181 255
133 182 255
135 183 255
140 186 255
152 193 255
165 201 255
169 203 255
168 203 255
168 203 255
167 203 255
167 202 255
166 202 255
166 202 255
166 202 255
165 201 255
163 199 253
101 132 194
26 50 120
15 38 117
15 38 108
15 38 107
15 37 107
15 38 111
15 38 106
15 38 110
15 38 113
15 37 108
15 37 108
25 49 129
94 124 189
162 198 253
165 201 255
166 202 255
166 202 255
166 202 255
167 202 255
167 203 255
168 203 255
168 203 255
169 203 255
141 166 221
97 104 151
82 82 108
79 79 110
85 85 98
92 92 86
87 87 96
95 95 81
92 91 88
95 93 86
96 95 83
90 89 94
95 93 88
90 88 97
85 82 110
97 93 90
79 75 122
100 94 84
88 83 109
95 95 141
116 130 216
158 197 255
154 195 255
151 193 255
148 191 255
146 190 255
143 188 255
141 187 255
139 186 255
137 184 255
135 183 255
133 182 255
132 181 255
130 180 255
129 180 255
128 179 255
128 179 255
129 179 255
130 180 255
132 182 255
138 185 255
148 191 255
166 202 255
170 204 255
169 204 255
169 204 255
169 203 255
168 203 255
168 203 255
158 193 245
41 66 136
15 38 113
15 38 104
14 37 98
14 37 104
15 37 103
15 38 108
15 37 104
15 38 107
15 38 113
15 38 107
15 37 99
15 38 103
14 37 103
14 37 111
66 93 158
155 189 244
168 203 255
168 203 255
168 203 255
169 204 255
169 204 255
170 204 255
151 176 214
93 96 122
84 83 104
92 92 86
86 87 96
95 95 79
100 100 71
102 101 69
95 95 79
100 100 71
100 99 75
101 101 71
105 103 69
102 100 75
104 100 77
102 99 75
109 105 69
106 101 74
102 97 86
89 85 103
90 86 103
91 85 105
84 79 114
156 196 255
154 195 255
151 193 255
149 192 255
147 190 255
145 189 255
143 188 255
141 187 255
139 186 255
137 184 255
135 183 255
133 182 255
132 181 255
131 181 255
129 180 255
128 179 255
128 179 255
128 179 255
129 180 255
131 181 255
135 183 255
141 187 255
158 197 255
171 205 255
171 205 255
171 205 255
170 204 255
162 196 249
47 73 145
14 37 95
15 37 101
15 38 104
15 38 111
14 36 90
15 37 101
14 37 95
14 37 95
14 37 99
14 36 92
15 38 107
15 38 110
15 37 100
15 37 100
15 37 103
15 37 96
53 78 136
159 192 241
170 204 255
171 205 255
171 205 255
162 192 243
112 121 161
88 85 104
87 87 96
99 98 73
101 101 69
100 99 73
104 104 65
102 102 67
108 107 61
105 105 63
106 105 65
102 100 75
112 109 59
107 104 67
107 104 69
109 105 67
108 103 70
109 103 71
100 95 88
111 105 70
106 99 82
100 94 89
100 93 89
89 82 105
158 197 255
156 196 255
154 195 255
152 193 255
150 192 255
148 191 255
146 190 255
144 189 255
141 186 255
104 138 255
84 113 255
60 81 255
55 75 255
38 52 255
38 52 255
39 54 255
73 101 255
102 141 255
128 177 255
131 181 255
133 182 255
136 184 255
141 187 255
154 195 255
172 205 255
173 206 255
173 206 255
52 77 139
14 37 102
15 37 101
15 38 99
15 37 97
15 38 102
15 37 94
15 37 92
15 37 99
15 37 93
15 37 89
14 37 97
14 36 92
15 38 104
15 38 95
14 36 89
15 37 100
15 37 96
14 36 95
51 75 141
173 206 255
173 206 255
162 191 245
96 96 110
95 92 87
90 90 85
99 99 66
97 96 65
105 104 62
104 103 62
114 111 55
113 110 57
115 112 53
110 108 61
111 109 56
116 112 54
116 111 56
110 106 67
116 110 59
111 106 67
114 108 61
117 109 63
113 106 71
112 105 67
118 109 66
110 102 71
103 95 83
109 101 73
161 199 255
159 198 255
157 197 255
156 196 255
154 195 255
152 194 255
142 181 255
83 107 255
21 28 255
1 1 255
4 5 255
8 11 255
7 9 255
4 5 255
4 5 255
5 7 255
8 11 255
5 7 255
13 18 255
62 84 255
118 160 255
138 185 255
140 186 255
145 189 255
156 196 255
173 206 255
122 151 206
14 37 98
15 37 102
15 37 102
15 37 97
14 37 98
14 36 92
15 37 95
14 36 88
14 36 90
14 36 92
14 37 98
15 37 98
15 37 94
14 36 85
14 36 88
14 36 92
14 36 92
15 37 102
14 35 90
14 35 91
125 153 206
157 183 237
91 89 105
101 99 72
88 88 74
97 96 69
101 99 61
106 104 55
108 107 49
106 106 51
106 104 60
110 108 56
114 110 56
118 114 52
115 111 54
115 110 57
119 113 56
115 110 58
120 113 56
115 108 60
116 109 58
113 107 62
117 110 62
113 106 62
110 102 71
114 105 71
99 92 91
111 102 73
165 201 255
163 200 255
162 199 255
161 199 255
159 198 255
108 135 255
20 25 255
6 7 255
6 7 255
6 7 255
7 9 255
4 5 255
8 11 255
14 19 255
21 28 255
32 43 255
8 11 255
8 11 255
4 5 255
0 0 255
11 14 255
91 120 255
144 189 255
147 190 255
152 193 255
164 201 255
24 47 111
15 37 92
14 36 87
15 38 101
14 36 87
15 37 89
15 37 103
14 36 85
15 37 93
14 36 89
15 37 89
14 35 74
15 37 93
14 37 87
15 37 98
14 36 87
15 37 98
14 34 76
14 36 85
14 35 83
14 36 92
41 62 106
98 99 124
84 82 77
85 85 65
81 80 58
80 81 57
95 94 52
97 97 49
103 101 45
114 110 50
117 113 51
119 113 51
117 112 47
123 115 49
122 115 51
122 114 53
125 117 48
118 110 60
119 111 55
123 113 55
120 112 54
113 106 66
118 109 53
117 109 57
118 109 58
116 108 56
113 104 59
111 104 66
170 204 255
168 203 255
167 203 255
166 202 255
107 130 255
11 14 255
3 4 255
8 10 255
3 3 255
7 9 255
13 17 253
72 92 255
119 156 255
137 183 255
115 158 255
103 143 255
117 161 255
121 165 255
75 100 255
14 19 255
12 15 255
1 2 254
39 53 235
81 113 186
115 150 217
115 148 207
14 37 99
14 36 88
15 36 93
15 37 92
14 37 93
15 37 98
15 37 83
14 36 81
14 36 78
14 36 89
14 36 88
14 36 84
14 36 88
14 35 81
14 36 88
15 37 88
14 35 83
15 37 89
15 36 88
14 35 90
14 35 86
14 34 85
43 49 86
79 78 67
50 53 38
68 70 49
72 74 44
86 86 43
96 94 42
104 101 44
116 109 48
111 105 46
125 117 48
123 115 48
125 117 48
123 115 48
123 115 46
126 116 48
120 112 50
126 116 46
120 111 52
119 109 57
121 111 50
120 111 55
124 114 51
119 110 53
117 107 60
115 104 67
111 102 67
175 207 255
174 206 255
173 206 255
148 176 255
6 8 255
6 8 255
6 8 255
10 12 255
6 8 255
59 72 255
135 169 255
135 173 255
76 100 255
28 36 255
13 17 255
12 16 255
14 17 255
23 30 255
67 90 255
135 176 255
59 76 254
0 1 249
0 0 253
8 21 165
12 31 118
22 44 112
14 35 80
14 35 79
14 36 83
14 36 83
15 37 87
14 35 78
14 36 92
14 35 78
14 35 76
14 36 85
15 36 85
14 35 83
15 37 89
14 34 74
14 36 80
15 36 84
14 36 88
14 35 78
14 35 78
14 35 81
14 35 90
14 34 81
30 42 67
35 40 27
41 43 34
44 47 33
55 58 31
66 67 35
96 92 40
94 91 39
108 102 40
113 106 39
121 111 42
119 111 41
121 112 44
122 113 47
126 117 45
124 114 42
125 115 40
123 114 42
123 113 53
117 109 45
125 114 47
126 115 47
121 111 46
111 102 61
111 103 58
109 100 59
113 104 57
180 210 255
180 210 255
179 210 255
62 73 255
16 18 255
10 12 255
7 8 255
8 10 255
22 27 255
156 188 255
145 178 255
22 27 255
13 16 255
4 6 255
37 47 197
64 83 133
59 77 140
32 42 209
11 13 255
21 27 255
103 132 229
32 40 248
0 1 250
2 5 231
8 21 112
13 32 86
14 35 78
14 35 78
14 36 79
14 36 74
14 35 75
14 35 81
14 35 78
14 35 72
13 34 71
15 37 90
14 36 80
15 36 79
14 35 80
15 36 85
14 36 79
14 35 70
14 36 86
14 36 87
14 35 75
14 35 74
14 35 77
14 34 79
14 29 55
13 17 35
24 28 21
31 35 27
52 54 29
59 61 26
76 75 34
99 93 38
108 101 40
108 100 37
115 107 40
120 111 40
121 112 41
121 112 38
120 111 36
122 112 39
125 114 39
121 111 37
127 116 40
115 106 52
127 115 46
117 107 47
119 110 45
112 102 53
116 107 49
116 106 57
117 105 50
186 214 255
186 214 255
172 198 255
5 6 255
5 6 255
7 8 255
3 4 255
5 6 255
109 127 255
178 209 255
67 79 255
21 25 255
10 12 255
55 70 158
129 158 94
142 172 84
150 180 130
140 170 102
55 69 174
2 4 249
5 12 197
41 54 182
0 1 248
0 1 248
6 17 123
14 35 90
15 36 88
15 36 94
14 35 79
13 34 67
14 35 81
14 35 71
14 35 76
14 35 63
14 36 79
13 34 67
13 34 62
14 35 76
14 34 67
14 36 80
14 35 76
14 35 71
14 35 80
14 35 76
13 32 64
13 34 68
13 34 78
13 32 65
14 31 61
6 9 20
10 14 18
20 25 17
42 43 22
60 59 25
77 75 28
92 86 31
103 96 32
103 96 31
115 105 35
118 109 35
114 105 32
123 113 36
117 109 33
122 111 37
123 112 34
123 113 35
121 110 38
116 107 31
116 107 39
125 114 36
113 104 44
107 99 53
117 107 41
107 98 46
113 103 49
192 217 255
191 217 255
176 200 255
9 10 255
5 6 255
3 4 255
7 8 255
7 8 255
142 161 255
191 217 255
43 49 253
12 14 253
5 6 255
161 184 241
169 192 237
189 215 248
190 216 253
186 212 252
170 194 243
0 2 245
1 2 236
16 25 115
0 1 249
0 0 252
6 17 136
13 33 80
14 36 87
14 35 74
13 34 70
14 35 74
14 35 62
13 34 74
14 36 71
13 34 61
14 35 75
13 34 63
13 33 61
15 36 80
14 36 75
14 35 66
14 35 72
15 37 86
14 35 75
13 33 53
13 34 61
14 34 74
13 32 63
12 31 61
12 29 54
4 7 25
12 16 10
15 19 20
34 36 14
55 55 20
70 69 23
80 76 23
94 87 28
97 91 28
107 99 27
112 103 31
107 99 26
117 107 28
119 109 29
112 105 24
123 112 33
120 109 30
121 110 30
114 105 28
122 110 32
108 99 46
112 103 50
118 107 42
115 104 48
107 98 40
114 102 52
176 203 189
176 202 184
153 181 135
3 3 253
11 12 253
8 10 245
6 7 250
5 7 243
77 93 156
123 156 7
53 69 140
17 22 222
11 13 240
86 104 234
165 195 236
170 199 227
169 198 240
174 206 240
74 89 241
1 2 244
2 5 186
28 39 109
0 2 239
0 0 248
6 15 116
14 34 74
13 33 74
14 36 81
14 35 75
14 35 76
13 34 69
13 34 62
14 34 71
13 33 62
14 35 67
13 34 70
14 36 79
14 35 62
13 34 62
14 34 68
13 33 58
14 34 65
14 35 72
14 34 69
13 33 66
13 32 66
14 34 69
13 33 66
12 28 52
6 9 8
9 12 11
14 18 9
20 24 10
48 49 16
57 58 16
71 68 18
94 87 23
96 88 21
102 94 23
107 99 20
111 101 25
114 104 28
110 102 26
114 105 22
113 104 25
114 105 23
117 106 30
113 103 25
115 105 30
114 105 36
115 104 33
107 97 41
116 105 38
104 95 48
110 101 45
119 152 0
117 151 0
120 154 0
46 60 153
5 6 245
3 4 248
7 10 238
8 10 238
14 18 225
103 131 30
99 128 30
27 35 189
12 15 230
13 17 225
49 62 230
73 91 230
76 95 230
48 60 240
8 11 230
11 14 202
35 49 34
25 33 183
0 1 244
1 3 217
6 16 74
12 31 61
13 34 63
13 32 55
13 33 56
14 35 75
14 34 65
14 34 60
13 33 57
13 34 65
13 34 56
13 33 60
13 34 62
14 35 60
14 35 69
13 34 62
14 35 70
14 35 63
14 36 76
13 33 60
13 33 65
13 33 62
13 32 57
12 30 50
11 24 42
8 11 13
6 9 16
22 23 17
27 30 14
36 38 9
64 63 10
55 54 12
76 73 13
96 90 17
98 91 16
103 95 18
100 93 18
102 94 18
108 99 19
107 99 17
109 100 23
105 97 26
104 97 19
107 97 19
103 93 30
107 99 20
109 100 28
105 95 36
107 98 39
106 96 45
101 92 58
117 150 0
117 151 0
117 151 0
102 133 30
3 4 248
3 4 248
8 10 238
6 7 243
2 3 250
23 29 209
99 128 25
92 119 17
53 68 127
22 29 202
8 11 235
4 6 240
7 9 238
12 16 212
30 39 138
56 72 15
26 33 167
0 2 243
0 0 245
6 16 110
6 16 44
13 30 53
13 33 55
13 33 57
13 33 57
13 34 60
12 32 56
14 34 74
13 32 51
13 33 53
14 34 69
13 33 58
13 33 61
13 34 67
14 34 57
13 33 56
13 34 61
12 31 48
13 32 57
14 34 70
13 34 70
12 31 55
13 32 53
13 31 63
11 23 48
18 19 17
18 19 24
27 27 11
21 24 10
46 45 6
54 53 8
65 63 10
69 66 8
86 81 10
91 85 11
95 89 13
99 91 19
98 92 12
103 94 16
98 90 15
106 97 18
103 94 17
110 101 23
101 92 25
103 94 18
105 96 29
104 96 29
108 100 23
99 91 38
95 86 59
91 85 48
116 151 0
116 150 0
114 146 0
114 147 0
73 95 87
2 3 250
4 6 245
2 2 250
4 6 245
6 9 238
12 15 230
55 69 130
91 113 38
93 117 2
77 97 30
50 65 63
61 78 28
53 68 23
30 39 110
5 6 232
2 3 245
1 2 240
12 17 145
23 35 14
35 50 7
58 81 15
12 31 42
13 33 53
13 33 55
13 33 58
13 32 48
13 32 55
13 34 61
13 33 57
13 32 55
13 33 58
14 34 69
13 34 62
13 33 55
13 34 61
13 33 58
12 31 41
13 32 61
14 34 66
13 32 56
13 32 61
12 29 50
13 31 66
34 37 58
23 24 45
28 27 16
27 29 9
42 41 7
43 43 2
51 51 9
62 60 10
60 58 6
77 71 6
88 82 8
82 76 12
89 81 10
93 86 9
89 84 8
100 91 15
93 87 14
97 89 17
94 88 23
101 93 22
97 88 25
96 90 17
102 94 23
101 92 37
98 89 34
96 88 47
95 88 37
114 147 0
118 152 0
109 142 0
110 143 0
114 148 0
81 105 56
17 23 217
2 3 250
5 7 243
7 9 240
2 3 250
4 6 245
4 5 245
9 12 230
14 18 215
15 18 204
5 6 235
1 1 250
4 6 245
2 3 248
6 8 238
33 43 84
51 66 0
47 63 0
67 88 0
88 116 1
25 45 39
12 31 55
13 32 53
13 33 53
13 32 52
12 31 51
14 34 61
13 33 61
12 31 52
13 33 49
12 31 48
13 33 55
12 32 55
13 33 56
13 33 57
13 34 62
12 31 43
12 31 43
13 33 58
13 32 56
13 31 52
28 47 35
58 58 61
39 37 50
26 24 18
24 24 29
40 39 16
46 44 8
46 44 6
57 55 2
58 56 3
67 63 4
68 64 5
71 68 7
91 85 8
81 74 10
81 76 15
81 75 9
88 81 12
93 87 9
90 83 18
95 89 14
92 86 17
96 89 19
88 80 29
88 81 28
97 88 49
89 83 44
87 79 56
111 143 0
113 147 0
112 145 0
108 140 0
114 146 0
111 144 0
100 131 10
57 75 122
19 24 209
6 8 238
3 4 248
4 6 240
5 8 238
8 10 238
2 3 248
3 4 248
2 3 250
1 2 248
4 6 232
26 36 130
46 63 20
55 70 0
55 73 0
63 82 0
78 100 0
98 128 0
63 86 7
11 29 57
11 29 34
13 32 51
12 30 47
12 32 43
12 31 49
12 32 52
12 31 51
12 31 49
14 34 61
13 32 47
13 32 51
12 32 49
13 32 56
12 32 44
12 30 47
12 30 44
12 30 39
12 30 46
11 28 47
64 86 14
99 122 3
42 43 91
37 34 36
32 30 33
31 29 20
45 43 17
51 47 13
62 57 8
61 57 8
62 59 3
64 61 1
79 72 8
67 64 7
79 72 11
87 80 10
79 73 7
94 87 9
86 80 23
85 79 12
90 84 17
91 83 26
81 74 28
91 84 20
81 74 48
89 82 32
84 78 36
85 77 62
115 148 0
110 142 0
111 142 0
115 148 0
99 129 0
111 143 0
101 131 0
104 135 0
101 132 0
88 114 33
52 68 117
35 46 166
28 37 176
20 26 191
25 34 186
35 46 151
32 43 115
45 60 69
67 87 0
66 85 0
68 88 0
65 83 0
58 74 0
58 76 0
95 122 0
81 107 0
94 121 0
26 44 29
11 28 48
12 31 35
12 31 38
12 30 46
12 31 44
12 31 52
12 31 46
12 31 48
13 32 48
13 32 51
12 31 51
12 30 46
13 32 46
12 31 47
11 29 34
12 29 48
11 29 50
12 31 49
30 45 19
76 93 0
91 108 0
76 89 12
41 37 83
30 27 79
47 41 25
30 27 30
45 42 36
46 42 28
64 60 10
51 46 12
63 57 20
67 62 15
74 67 10
78 71 6
79 73 11
76 70 9
77 71 19
79 74 23
80 73 27
85 79 9
83 78 16
78 73 30
87 79 29
90 81 32
82 76 36
74 69 62
84 77 36
110 142 0
106 136 0
113 144 0
106 135 0
97 127 0
98 128 0
95 123 0
104 133 0
104 131 0
91 117 0
81 107 0
94 120 0
90 116 0
81 105 0
80 103 0
77 98 0
72 94 0
75 96 0
70 90 0
60 78 0
63 80 0
61 77 0
60 76 0
87 109 0
75 96 0
73 94 0
67 87 0
72 95 0
20 37 29
11 28 38
12 30 37
11 28 34
12 30 37
12 30 48
11 29 38
11 29 37
11 29 29
10 27 30
12 30 40
12 30 42
11 29 43
12 29 37
11 28 37
12 30 43
11 27 31
19 36 32
74 88 0
77 93 0
72 83 0
68 76 0
65 69 13
47 47 63
39 34 59
35 30 46
37 33 30
47 40 28
54 48 17
56 50 18
62 55 25
58 53 20
65 58 10
71 64 27
71 64 31
76 68 13
73 67 29
76 69 35
79 72 16
72 67 31
72 65 32
62 57 52
81 72 34
81 74 50
82 75 40
82 74 60
68 61 79
109 138 0
112 142 0
111 141 0
100 128 0
94 120 0
105 132 0
89 114 0
92 118 0
90 115 0
92 118 0
91 116 0
100 125 0
85 108 0
75 96 0
79 99 0
77 96 0
74 94 0
72 91 0
63 80 0
58 74 0
57 71 0
61 76 0
57 71 0
65 80 0
68 86 0
60 76 0
57 75 0
51 69 0
70 90 0
18 34 30
10 26 26
11 28 38
12 30 40
11 29 46
12 30 42
11 28 33
11 29 30
11 27 38
11 28 37
11 28 43
11 27 28
10 26 33
11 28 34
9 24 22
22 36 15
54 67 0
64 77 0
51 59 0
56 64 0
56 65 0
61 65 0
63 66 0
46 42 28
31 25 79
42 35 53
38 33 56
49 43 30
48 41 30
51 45 40
63 54 23
57 49 30
61 55 15
75 67 14
61 54 31
68 60 31
70 62 34
73 66 32
66 60 39
67 60 52
68 60 40
69 63 50
69 61 63
66 60 75
66 59 77
67 61 76
110 141 0
105 132 0
100 127 0
101 127 0
103 131 0
99 127 0
92 115 0
88 112 0
101 126 0
91 115 0
90 112 0
84 106 0
82 105 0
76 96 0
78 97 0
72 90 0
66 82 0
56 70 0
55 69 0
48 59 0
46 57 0
48 61 0
56 71 0
65 82 0
54 71 0
60 77 0
47 64 0
51 67 0
51 67 0
49 64 0
29 43 8
10 25 26
10 27 29
11 28 26
10 26 25
11 28 30
10 26 21
11 29 34
10 26 30
11 27 29
10 25 28
10 26 23
12 27 31
28 40 11
42 51 1
48 59 0
69 84 0
45 56 0
54 61 0
49 54 0
48 55 0
37 40 0
43 45 0
34 35 2
28 24 40
24 20 56
33 26 76
30 24 63
44 35 56
50 42 48
39 31 71
49 43 33
60 51 51
54 47 46
64 56 33
62 54 56
61 52 65
56 50 71
62 56 50
66 59 55
65 57 65
57 50 84
56 50 87
63 61 97
94 107 37
116 148 0
107 137 0
110 139 0
105 132 0
95 119 0
97 122 0
95 117 0
98 122 0
88 111 0
83 104 0
96 118 0
80 99 0
82 99 0
73 88 0
49 61 0
49 60 0
46 56 0
41 50 0
48 61 0
42 54 0
47 60 0
64 80 0
58 73 0
57 73 0
54 71 0
60 77 0
44 59 0
35 49 0
49 64 0
45 61 0
37 48 0
30 41 2
18 29 12
11 25 20
8 21 10
10 25 29
8 22 19
9 25 24
10 25 28
9 24 25
10 22 10
13 24 16
27 35 0
41 52 0
39 48 0
43 51 0
53 67 0
49 59 0
53 63 0
53 64 0
52 59 0
56 65 0
51 55 0
54 55 0
41 42 0
29 28 0
42 40 2
28 22 33
40 33 35
41 33 61
37 29 76
42 33 56
39 31 81
47 39 76
49 40 79
46 38 79
50 42 79
44 37 94
48 39 101
63 59 71
75 75 52
82 87 49
93 107 20
108 131 0
113 140 0
108 137 0
106 136 0
107 135 0
101 128 0
100 124 0
97 120 0
94 116 0
89 109 0
83 102 0
76 92 0
73 88 0
55 68 0
64 78 0
65 79 0
59 73 0
47 59 0
62 77 0
57 72 0
56 70 0
52 67 0
67 84 0
60 75 0
67 87 0
51 68 0
64 82 0
52 68 0
58 76 0
49 66 0
37 50 0
41 55 0
39 52 0
43 57 0
29 39 0
26 36 0
26 37 1
18 27 6
12 19 2
15 24 11
17 25 3
18 24 1
26 35 0
35 44 0
33 42 0
38 49 0
38 50 0
42 53 0
54 66 0
49 62 0
65 77 0
58 71 0
65 77 0
57 66 0
54 62 0
51 59 0
60 68 0
39 41 0
49 49 0
43 43 0
49 47 0
43 38 0
50 46 2
41 37 10
55 49 23
58 55 38
59 56 30
65 61 33
72 70 33
75 75 18
93 98 2
96 109 2
98 113 0
101 117 0
100 119 0
107 130 0
108 131 0
110 138 0
102 128 0
97 122 0
109 135 0
92 115 0
88 108 0
91 113 0
98 119 0
81 100 0
76 93 0
68 83 0
68 83 0
80 97 0
69 86 0
72 90 0
71 88 0
76 94 0
62 79 0
65 81 0
56 73 0
61 80 0
67 88 0
61 81 0
69 91 0
65 84 0
56 76 0
53 71 0
53 71 0
53 71 0
45 61 0
52 68 0
47 63 0
26 37 0
47 61 0
28 40 0
33 45 0
28 38 0
22 30 0
25 33 0
33 44 0
33 44 0
29 40 0
33 43 0
44 57 0
40 55 0
48 62 0
50 63 0
53 66 0
53 66 0
59 73 0
63 76 0
65 79 0
64 78 0
57 69 0
60 72 0
70 78 0
60 69 0
57 62 0
65 64 0
66 65 0
69 68 0
66 65 0
61 57 0
70 70 0
67 66 0
79 80 0
73 74 0
89 91 0
86 95 0
101 112 0
95 106 0
97 108 0
98 111 0
98 114 0
107 131 0
99 125 0
100 123 0
104 129 0
93 117 0
85 105 0
91 113 0
88 107 0
92 114 0
84 103 0
81 100 0
73 91 0
76 96 0
81 101 0
82 103 0
79 99 0
76 97 0
76 95 0
67 86 0
69 90 0
82 105 0
77 99 0
78 101 0
82 107 0
80 105 0
61 82 0
70 92 0
62 83 0
64 83 0
63 83 0
65 87 0
55 73 0
52 70 0
54 72 0
48 64 0
36 51 0
40 53 0
32 43 0
42 55 0
43 58 0
41 54 0
38 52 0
48 64 0
52 67 0
48 63 0
53 68 0
54 69 0
57 72 0
60 78 0
61 76 0
60 75 0
72 87 0
60 74 0
77 95 0
68 82 0
62 74 0
66 75 0
72 83 0
76 87 0
81 93 0
68 73 0
64 68 0
78 83 0
71 77 0
78 82 0
74 77 0
79 82 0
76 78 0
89 97 0
82 88 0
84 88 0
96 105 0
95 109 0
93 105 0
101 114 0
104 122 0
102 127 0
96 120 0
85 105 0
99 122 0
91 114 0
81 100 0
83 103 0
78 97 0
88 109 0
86 108 0
81 102 0
79 100 0
81 103 0
78 99 0
72 92 0
86 110 0
74 95 0
69 91 0
66 86 0
63 86 0
79 103 0
78 102 0
73 96 0
61 80 0
74 98 0
71 94 0
53 72 0
49 67 0
62 82 0
67 90 0
59 79 0
53 71 0
54 72 0
60 80 0
46 62 0
53 69 0
44 58 0
36 51 0
51 67 0
46 62 0
46 62 0
61 79 0
49 65 0
60 79 0
64 82 0
54 69 0
57 73 0
62 78 0
68 86 0
67 83 0
67 83 0
75 95 0
70 90 0
68 83 0
76 94 0
72 88 0
75 89 0
77 92 0
73 86 0
77 90 0
72 85 0
73 83 0
79 88 0
75 85 0
78 84 0
78 85 0
80 88 0
87 95 0
77 81 0
82 90 0
78 84 0
88 92 0
99 108 0
98 113 0
100 114 0
99 124 0
89 113 0
105 132 0
87 109 0
100 125 0
89 112 0
80 102 0
82 103 0
88 111 0
76 96 0
96 121 0
92 117 0
78 100 0
72 94 0
74 97 0
85 110 0
77 101 0
77 101 0
64 85 0
69 92 0
83 108 0
59 81 0
79 104 0
65 88 0
73 97 0
78 102 0
79 105 0
66 89 0
57 79 0
54 73 0
62 82 0
64 86 0
67 88 0
69 91 0
57 76 0
60 79 0
66 86 0
60 80 0
56 74 0
54 71 0
66 87 0
53 70 0
69 89 0
64 84 0
64 83 0
59 76 0
75 95 0
69 88 0
67 84 0
58 74 0
73 94 0
78 97 0
74 94 0
67 83 0
73 91 0
73 91 0
79 97 0
74 92 0
74 89 0
75 91 0
76 90 0
87 99 0
85 96 0
82 93 0
88 99 0
89 102 0
83 93 0
95 106 0
80 85 0
82 90 0
94 104 0
95 106 0
91 104 0
95 107 0
95 106 0
94 119 0
88 111 0
99 123 0
98 122 0
88 111 0
93 117 0
92 116 0
94 119 0
82 105 0
87 113 0
86 111 0
82 106 0
87 112 0
76 98 0
79 102 0
79 102 0
78 102 0
75 98 0
82 108 0
85 111 0
77 102 0
76 102 0
80 105 0
79 103 0
69 92 0
70 94 0
73 97 0
69 91 0
73 96 0
69 92 0
70 92 0
63 86 0
63 84 0
62 84 0
61 80 0
65 85 0
73 97 0
65 86 0
57 75 0
70 91 0
60 79 0
66 85 0
68 89 0
70 90 0
60 80 0
59 77 0
70 91 0
67 87 0
65 85 0
75 96 0
76 97 0
73 94 0
77 96 0
82 102 0
77 96 0
83 103 0
73 90 0
83 103 0
89 107 0
87 103 0
74 88 0
83 98 0
79 94 0
82 97 0
78 93 0
84 99 0
86 99 0
88 102 0
92 109 0
95 106 0
85 98 0
81 93 0
92 104 0
95 107 0
92 108 0
96 121 0
104 129 0
96 120 0
100 127 0
85 109 0
88 114 0
91 117 0
91 116 0
85 109 0
90 114 0
91 117 0
81 107 0
91 119 0
80 104 0
83 109 0
83 109 0
83 108 0
86 110 0
80 107 0
71 95 0
79 104 0
86 114 0
79 104 0
77 104 0
80 105 0
84 109 0
77 101 0
69 93 0
75 99 0
63 84 0
73 96 0
68 90 0
71 95 0
70 94 0
71 94 0
62 82 0
55 75 0
68 90 0
70 92 0
66 86 0
63 84 0
72 96 0
67 87 0
74 96 0
72 94 0
66 87 0
63 82 0
71 91 0
71 90 0
60 78 0
85 108 0
76 96 0
70 89 0
78 99 0
81 99 0
86 105 0
76 98 0
85 106 0
85 102 0
83 102 0
82 101 0
89 104 0
77 92 0
80 97 0
89 107 0
79 96 0
85 101 0
82 99 0
81 97 0
98 115 0
95 111 0
99 114 0
87 99 0
94 109 0
94 108 0
91 117 0
95 121 0
99 126 0
84 109 0
90 115 0
88 114 0
92 118 0
80 105 0
84 108 0
90 116 0
91 118 0
85 110 0
81 105 0
82 106 0
91 118 0
83 108 0
90 118 0
89 116 0
80 106 0
83 108 0
75 100 0
74 97 0
74 99 0
62 83 0
75 100 0
79 105 0
83 109 0
70 95 0
70 94 0
74 96 0
73 97 0
66 87 0
82 106 0
62 81 0
67 89 0
70 92 0
79 104 0
69 91 0
61 81 0
78 102 0
65 86 0
65 86 0
73 95 0
70 91 0
71 93 0
77 99 0
74 97 0
71 93 0
78 102 0
83 105 0
81 104 0
75 97 0
70 94 0
80 102 0
76 96 0
78 98 0
91 116 0
87 111 0
85 104 0
86 106 0
81 103 0
89 112 0
82 100 0
90 108 0
81 97 0
81 99 0
93 113 0
93 112 0
85 101 0
98 116 0
89 104 0
84 96 0
91 108 0
96 115 0
95 109 0
89 115 0
91 117 0
95 121 0
90 116 0
100 128 0
84 109 0
85 111 0
96 125 0
86 111 0
89 117 0
89 115 0
82 109 0
94 122 0
80 106 0
87 112 0
79 104 0
84 110 0
85 113 0
88 117 0
80 106 0
83 108 0
73 98 0
87 114 0
80 107 0
73 97 0
82 108 0
75 100 0
60 82 0
77 103 0
76 100 0
78 103 0
69 93 0
69 91 0
71 94 0
77 101 0
77 102 0
71 94 0
68 91 0
76 101 0
70 93 0
78 103 0
84 107 0
83 108 0
72 94 0
78 103 0
74 97 0
76 101 0
77 100 0
81 106 0
92 117 0
73 95 0
82 106 0
72 93 0
77 98 0
81 102 0
88 113 0
86 110 0
87 110 0
80 101 0
87 112 0
83 103 0
86 109 0
87 107 0
85 105 0
93 113 0
85 102 0
88 108 0
84 102 0
88 106 0
92 109 0
96 115 0
93 112 0
89 103 0
94 113 0
94 110 0
